G04 #@! TF.GenerationSoftware,KiCad,Pcbnew,9.0.0*
G04 #@! TF.CreationDate,2025-03-03T20:11:52-05:00*
G04 #@! TF.ProjectId,pcb,7063622e-6b69-4636-9164-5f7063625858,rev?*
G04 #@! TF.SameCoordinates,Original*
G04 #@! TF.FileFunction,Copper,L2,Bot*
G04 #@! TF.FilePolarity,Positive*
%FSLAX46Y46*%
G04 Gerber Fmt 4.6, Leading zero omitted, Abs format (unit mm)*
G04 Created by KiCad (PCBNEW 9.0.0) date 2025-03-03 20:11:52*
%MOMM*%
%LPD*%
G01*
G04 APERTURE LIST*
G04 Aperture macros list*
%AMRoundRect*
0 Rectangle with rounded corners*
0 $1 Rounding radius*
0 $2 $3 $4 $5 $6 $7 $8 $9 X,Y pos of 4 corners*
0 Add a 4 corners polygon primitive as box body*
4,1,4,$2,$3,$4,$5,$6,$7,$8,$9,$2,$3,0*
0 Add four circle primitives for the rounded corners*
1,1,$1+$1,$2,$3*
1,1,$1+$1,$4,$5*
1,1,$1+$1,$6,$7*
1,1,$1+$1,$8,$9*
0 Add four rect primitives between the rounded corners*
20,1,$1+$1,$2,$3,$4,$5,0*
20,1,$1+$1,$4,$5,$6,$7,0*
20,1,$1+$1,$6,$7,$8,$9,0*
20,1,$1+$1,$8,$9,$2,$3,0*%
G04 Aperture macros list end*
G04 #@! TA.AperFunction,ComponentPad*
%ADD10RoundRect,0.250000X-0.265000X-0.615000X0.265000X-0.615000X0.265000X0.615000X-0.265000X0.615000X0*%
G04 #@! TD*
G04 #@! TA.AperFunction,ComponentPad*
%ADD11O,1.030000X1.730000*%
G04 #@! TD*
G04 #@! TA.AperFunction,ComponentPad*
%ADD12R,1.000000X1.000000*%
G04 #@! TD*
G04 #@! TA.AperFunction,ComponentPad*
%ADD13O,1.000000X1.000000*%
G04 #@! TD*
G04 #@! TA.AperFunction,ComponentPad*
%ADD14RoundRect,0.250000X-0.615000X0.265000X-0.615000X-0.265000X0.615000X-0.265000X0.615000X0.265000X0*%
G04 #@! TD*
G04 #@! TA.AperFunction,ComponentPad*
%ADD15O,1.730000X1.030000*%
G04 #@! TD*
G04 #@! TA.AperFunction,ViaPad*
%ADD16C,0.459000*%
G04 #@! TD*
G04 #@! TA.AperFunction,Conductor*
%ADD17C,0.300000*%
G04 #@! TD*
G04 #@! TA.AperFunction,Conductor*
%ADD18C,1.000000*%
G04 #@! TD*
G04 #@! TA.AperFunction,Conductor*
%ADD19C,0.128000*%
G04 #@! TD*
G04 APERTURE END LIST*
D10*
X156550000Y-105500000D03*
D11*
X158050000Y-105500000D03*
D12*
X166000000Y-99020000D03*
D13*
X166000000Y-97750000D03*
X166000000Y-96480000D03*
X166000000Y-95210000D03*
D12*
X160950000Y-100450000D03*
D13*
X160950000Y-101720000D03*
D14*
X148400000Y-95650000D03*
D15*
X148400000Y-97150000D03*
X148400000Y-98650000D03*
X148400000Y-100150000D03*
D10*
X148750000Y-105500000D03*
D11*
X150250000Y-105500000D03*
D10*
X164050000Y-105500000D03*
D11*
X165550000Y-105500000D03*
D16*
X151125000Y-102950000D03*
X153050000Y-102950000D03*
X153050000Y-102025000D03*
X151125000Y-102025000D03*
X153037500Y-102487500D03*
X151137500Y-102487500D03*
X155978910Y-100850202D03*
X159990000Y-98750000D03*
X161530000Y-103500000D03*
X158700000Y-96793498D03*
X158106502Y-96000000D03*
X160990000Y-98750000D03*
X157550000Y-99650000D03*
X158850000Y-100240000D03*
X153800000Y-96000000D03*
X152180000Y-98650000D03*
X156950000Y-97300000D03*
X157650000Y-97300000D03*
X157650000Y-97900000D03*
X156950000Y-97900000D03*
X154350000Y-96000000D03*
X157300000Y-101800000D03*
X156800000Y-101800000D03*
X156300000Y-101800000D03*
X154850000Y-102120000D03*
X154850000Y-101110000D03*
X152790000Y-103900000D03*
X152087500Y-102875000D03*
X152087500Y-102487500D03*
X152100000Y-102100000D03*
D17*
X152100000Y-102100000D02*
X152100000Y-103210000D01*
X152100000Y-103210000D02*
X152790000Y-103900000D01*
D18*
X151125000Y-102950000D02*
X151125000Y-101759074D01*
X153050000Y-101734074D02*
X153050000Y-102950000D01*
X151125000Y-101759074D02*
X151714574Y-101169500D01*
X151714574Y-101169500D02*
X152485426Y-101169500D01*
X152485426Y-101169500D02*
X153050000Y-101734074D01*
D19*
X155978910Y-100321090D02*
X155978910Y-100850202D01*
X159990000Y-98750000D02*
X159790000Y-98950000D01*
X159790000Y-98950000D02*
X157350000Y-98950000D01*
X157350000Y-98950000D02*
X155978910Y-100321090D01*
X158700000Y-96793498D02*
X156606502Y-96793498D01*
X149950000Y-98650000D02*
X148400000Y-98650000D01*
X156606502Y-96793498D02*
X155850000Y-97550000D01*
X155850000Y-97550000D02*
X151050000Y-97550000D01*
X151050000Y-97550000D02*
X149950000Y-98650000D01*
X158106502Y-96000000D02*
X155900000Y-96000000D01*
X155900000Y-96000000D02*
X155400000Y-96500000D01*
X155400000Y-96500000D02*
X150600000Y-96500000D01*
X150600000Y-96500000D02*
X149950000Y-97150000D01*
X149950000Y-97150000D02*
X148400000Y-97150000D01*
X160990000Y-98750000D02*
X165730000Y-98750000D01*
X165730000Y-98750000D02*
X166000000Y-99020000D01*
X157550000Y-99650000D02*
X158140000Y-100240000D01*
X158140000Y-100240000D02*
X158850000Y-100240000D01*
G04 #@! TA.AperFunction,Conductor*
G36*
X167008059Y-93801561D02*
G01*
X167100152Y-93813685D01*
X167131421Y-93822063D01*
X167209668Y-93854474D01*
X167237699Y-93870659D01*
X167304892Y-93922219D01*
X167327780Y-93945107D01*
X167379340Y-94012300D01*
X167395526Y-94040334D01*
X167427936Y-94118579D01*
X167436314Y-94149846D01*
X167448439Y-94241939D01*
X167449500Y-94258125D01*
X167449500Y-107491874D01*
X167448439Y-107508059D01*
X167448439Y-107508060D01*
X167436314Y-107600153D01*
X167427936Y-107631420D01*
X167395526Y-107709665D01*
X167379340Y-107737699D01*
X167327780Y-107804892D01*
X167304892Y-107827780D01*
X167237699Y-107879340D01*
X167209665Y-107895526D01*
X167131420Y-107927936D01*
X167100153Y-107936314D01*
X167017174Y-107947239D01*
X167008058Y-107948439D01*
X166991874Y-107949500D01*
X146258126Y-107949500D01*
X146241941Y-107948439D01*
X146231410Y-107947052D01*
X146149846Y-107936314D01*
X146118579Y-107927936D01*
X146040334Y-107895526D01*
X146012300Y-107879340D01*
X145945107Y-107827780D01*
X145922219Y-107804892D01*
X145870659Y-107737699D01*
X145854473Y-107709665D01*
X145822063Y-107631420D01*
X145813685Y-107600152D01*
X145801561Y-107508059D01*
X145800500Y-107491874D01*
X145800500Y-104834983D01*
X147734500Y-104834983D01*
X147734500Y-106165001D01*
X147734501Y-106165018D01*
X147745000Y-106267796D01*
X147745001Y-106267799D01*
X147765951Y-106331020D01*
X147800186Y-106434334D01*
X147892288Y-106583656D01*
X148016344Y-106707712D01*
X148165666Y-106799814D01*
X148332203Y-106854999D01*
X148434991Y-106865500D01*
X149065008Y-106865499D01*
X149065016Y-106865498D01*
X149065019Y-106865498D01*
X149121302Y-106859748D01*
X149167797Y-106854999D01*
X149334334Y-106799814D01*
X149483656Y-106707712D01*
X149607712Y-106583656D01*
X149699814Y-106434334D01*
X149754999Y-106267797D01*
X149765500Y-106165009D01*
X149765499Y-104834992D01*
X149765498Y-104834983D01*
X155534500Y-104834983D01*
X155534500Y-106165001D01*
X155534501Y-106165018D01*
X155545000Y-106267796D01*
X155545001Y-106267799D01*
X155565951Y-106331020D01*
X155600186Y-106434334D01*
X155692288Y-106583656D01*
X155816344Y-106707712D01*
X155965666Y-106799814D01*
X156132203Y-106854999D01*
X156234991Y-106865500D01*
X156865008Y-106865499D01*
X156865016Y-106865498D01*
X156865019Y-106865498D01*
X156921302Y-106859748D01*
X156967797Y-106854999D01*
X157134334Y-106799814D01*
X157283656Y-106707712D01*
X157300674Y-106690693D01*
X157361994Y-106657206D01*
X157431686Y-106662187D01*
X157457249Y-106675269D01*
X157568973Y-106749921D01*
X157568986Y-106749928D01*
X157689418Y-106799812D01*
X157753789Y-106826475D01*
X157897185Y-106854998D01*
X157949977Y-106865499D01*
X157949981Y-106865500D01*
X157949982Y-106865500D01*
X158150019Y-106865500D01*
X158150020Y-106865499D01*
X158346211Y-106826475D01*
X158531020Y-106749925D01*
X158697344Y-106638791D01*
X158838791Y-106497344D01*
X158949925Y-106331020D01*
X159026475Y-106146211D01*
X159065500Y-105950018D01*
X159065500Y-105049982D01*
X159026475Y-104853789D01*
X159018685Y-104834983D01*
X163034500Y-104834983D01*
X163034500Y-106165001D01*
X163034501Y-106165018D01*
X163045000Y-106267796D01*
X163045001Y-106267799D01*
X163065951Y-106331020D01*
X163100186Y-106434334D01*
X163192288Y-106583656D01*
X163316344Y-106707712D01*
X163465666Y-106799814D01*
X163632203Y-106854999D01*
X163734991Y-106865500D01*
X164365008Y-106865499D01*
X164365016Y-106865498D01*
X164365019Y-106865498D01*
X164421302Y-106859748D01*
X164467797Y-106854999D01*
X164634334Y-106799814D01*
X164783656Y-106707712D01*
X164907712Y-106583656D01*
X164999814Y-106434334D01*
X165054999Y-106267797D01*
X165065500Y-106165009D01*
X165065499Y-104834992D01*
X165054999Y-104732203D01*
X164999814Y-104565666D01*
X164907712Y-104416344D01*
X164783656Y-104292288D01*
X164634334Y-104200186D01*
X164467797Y-104145001D01*
X164467795Y-104145000D01*
X164365010Y-104134500D01*
X163734998Y-104134500D01*
X163734980Y-104134501D01*
X163632203Y-104145000D01*
X163632200Y-104145001D01*
X163465668Y-104200185D01*
X163465663Y-104200187D01*
X163316342Y-104292289D01*
X163192289Y-104416342D01*
X163100187Y-104565663D01*
X163100186Y-104565666D01*
X163045001Y-104732203D01*
X163045001Y-104732204D01*
X163045000Y-104732204D01*
X163034500Y-104834983D01*
X159018685Y-104834983D01*
X158976113Y-104732203D01*
X158949928Y-104668986D01*
X158949921Y-104668973D01*
X158838791Y-104502656D01*
X158838788Y-104502652D01*
X158697347Y-104361211D01*
X158697343Y-104361208D01*
X158531026Y-104250078D01*
X158531013Y-104250071D01*
X158346215Y-104173526D01*
X158346203Y-104173523D01*
X158150022Y-104134500D01*
X158150018Y-104134500D01*
X157949982Y-104134500D01*
X157949977Y-104134500D01*
X157753796Y-104173523D01*
X157753784Y-104173526D01*
X157568986Y-104250071D01*
X157568968Y-104250081D01*
X157457248Y-104324730D01*
X157390571Y-104345608D01*
X157323191Y-104327123D01*
X157300677Y-104309309D01*
X157283657Y-104292289D01*
X157283656Y-104292288D01*
X157134334Y-104200186D01*
X156967797Y-104145001D01*
X156967795Y-104145000D01*
X156865010Y-104134500D01*
X156234998Y-104134500D01*
X156234980Y-104134501D01*
X156132203Y-104145000D01*
X156132200Y-104145001D01*
X155965668Y-104200185D01*
X155965663Y-104200187D01*
X155816342Y-104292289D01*
X155692289Y-104416342D01*
X155600187Y-104565663D01*
X155600186Y-104565666D01*
X155545001Y-104732203D01*
X155545001Y-104732204D01*
X155545000Y-104732204D01*
X155534500Y-104834983D01*
X149765498Y-104834983D01*
X149754999Y-104732203D01*
X149699814Y-104565666D01*
X149607712Y-104416344D01*
X149483656Y-104292288D01*
X149334334Y-104200186D01*
X149167797Y-104145001D01*
X149167795Y-104145000D01*
X149065010Y-104134500D01*
X148434998Y-104134500D01*
X148434980Y-104134501D01*
X148332203Y-104145000D01*
X148332200Y-104145001D01*
X148165668Y-104200185D01*
X148165663Y-104200187D01*
X148016342Y-104292289D01*
X147892289Y-104416342D01*
X147800187Y-104565663D01*
X147800186Y-104565666D01*
X147745001Y-104732203D01*
X147745001Y-104732204D01*
X147745000Y-104732204D01*
X147734500Y-104834983D01*
X145800500Y-104834983D01*
X145800500Y-103048543D01*
X150124499Y-103048543D01*
X150162947Y-103241829D01*
X150162950Y-103241839D01*
X150238364Y-103423907D01*
X150238371Y-103423920D01*
X150347860Y-103587781D01*
X150347863Y-103587785D01*
X150487214Y-103727136D01*
X150487218Y-103727139D01*
X150651079Y-103836628D01*
X150651092Y-103836635D01*
X150833160Y-103912049D01*
X150833165Y-103912051D01*
X150833169Y-103912051D01*
X150833170Y-103912052D01*
X151026456Y-103950500D01*
X151026459Y-103950500D01*
X151223543Y-103950500D01*
X151353582Y-103924632D01*
X151416835Y-103912051D01*
X151598914Y-103836632D01*
X151762782Y-103727139D01*
X151902139Y-103587782D01*
X151984398Y-103464673D01*
X152038010Y-103419868D01*
X152107335Y-103411161D01*
X152170362Y-103441315D01*
X152190602Y-103464673D01*
X152272860Y-103587782D01*
X152412214Y-103727136D01*
X152412218Y-103727139D01*
X152576079Y-103836628D01*
X152576092Y-103836635D01*
X152758160Y-103912049D01*
X152758165Y-103912051D01*
X152758169Y-103912051D01*
X152758170Y-103912052D01*
X152951456Y-103950500D01*
X152951459Y-103950500D01*
X153148543Y-103950500D01*
X153278582Y-103924632D01*
X153341835Y-103912051D01*
X153523914Y-103836632D01*
X153687782Y-103727139D01*
X153827139Y-103587782D01*
X153936632Y-103423914D01*
X154012051Y-103241835D01*
X154050500Y-103048541D01*
X154050500Y-101635533D01*
X154050500Y-101635530D01*
X154032211Y-101543589D01*
X154032210Y-101543587D01*
X154030940Y-101537200D01*
X154012051Y-101442238D01*
X153968875Y-101338002D01*
X153966701Y-101332753D01*
X153936635Y-101260166D01*
X153936628Y-101260153D01*
X153827139Y-101096292D01*
X153827136Y-101096288D01*
X153684686Y-100953838D01*
X153684655Y-100953809D01*
X153652949Y-100922103D01*
X155248909Y-100922103D01*
X155276962Y-101063129D01*
X155276965Y-101063139D01*
X155331990Y-101195983D01*
X155411883Y-101315552D01*
X155513559Y-101417228D01*
X155633128Y-101497121D01*
X155765972Y-101552146D01*
X155765977Y-101552148D01*
X155765981Y-101552148D01*
X155765982Y-101552149D01*
X155907008Y-101580202D01*
X155907011Y-101580202D01*
X156050811Y-101580202D01*
X156145689Y-101561328D01*
X156191843Y-101552148D01*
X156258269Y-101524633D01*
X156324691Y-101497121D01*
X156324692Y-101497120D01*
X156324695Y-101497119D01*
X156444258Y-101417230D01*
X156545938Y-101315550D01*
X156625827Y-101195987D01*
X156627342Y-101192331D01*
X156667122Y-101096292D01*
X156680856Y-101063135D01*
X156693838Y-100997870D01*
X156708910Y-100922103D01*
X156708910Y-100778300D01*
X156680857Y-100637274D01*
X156680856Y-100637273D01*
X156680856Y-100637269D01*
X156648183Y-100558391D01*
X156640715Y-100488922D01*
X156671990Y-100426443D01*
X156675040Y-100423281D01*
X156895293Y-100203028D01*
X156956614Y-100169545D01*
X157026305Y-100174529D01*
X157070653Y-100203030D01*
X157084649Y-100217026D01*
X157204218Y-100296919D01*
X157337062Y-100351944D01*
X157337067Y-100351946D01*
X157445671Y-100373549D01*
X157507582Y-100405934D01*
X157509161Y-100407485D01*
X157793389Y-100691713D01*
X157793390Y-100691714D01*
X157793392Y-100691715D01*
X157908113Y-100757949D01*
X157919810Y-100764701D01*
X157922111Y-100766030D01*
X158065682Y-100804500D01*
X158343253Y-100804500D01*
X158410292Y-100824185D01*
X158412143Y-100825397D01*
X158504218Y-100886919D01*
X158629443Y-100938788D01*
X158637067Y-100941946D01*
X158637071Y-100941946D01*
X158637072Y-100941947D01*
X158778098Y-100970000D01*
X158778101Y-100970000D01*
X158921901Y-100970000D01*
X159016779Y-100951126D01*
X159062933Y-100941946D01*
X159129359Y-100914431D01*
X159195781Y-100886919D01*
X159195782Y-100886918D01*
X159195785Y-100886917D01*
X159315348Y-100807028D01*
X159417028Y-100705348D01*
X159496917Y-100585785D01*
X159551946Y-100452933D01*
X159572034Y-100351946D01*
X159580000Y-100311901D01*
X159580000Y-100168098D01*
X159551947Y-100027072D01*
X159551946Y-100027071D01*
X159551946Y-100027067D01*
X159549226Y-100020500D01*
X159496919Y-99894218D01*
X159417026Y-99774649D01*
X159368558Y-99726181D01*
X159335073Y-99664858D01*
X159340057Y-99595166D01*
X159381929Y-99539233D01*
X159447393Y-99514816D01*
X159456239Y-99514500D01*
X159864315Y-99514500D01*
X159864318Y-99514500D01*
X159876625Y-99511202D01*
X159946472Y-99512863D01*
X160004335Y-99552023D01*
X160031842Y-99616251D01*
X160020257Y-99685154D01*
X160007992Y-99705279D01*
X160006206Y-99707664D01*
X160006202Y-99707671D01*
X159955908Y-99842517D01*
X159950350Y-99894218D01*
X159949501Y-99902123D01*
X159949500Y-99902135D01*
X159949500Y-100997870D01*
X159949501Y-100997876D01*
X159955908Y-101057483D01*
X160006202Y-101192328D01*
X160006206Y-101192335D01*
X160015023Y-101204113D01*
X160039440Y-101269578D01*
X160030318Y-101325874D01*
X160027469Y-101332753D01*
X159987950Y-101428164D01*
X159987948Y-101428168D01*
X159987947Y-101428171D01*
X159949500Y-101621456D01*
X159949500Y-101621459D01*
X159949500Y-101818541D01*
X159949500Y-101818543D01*
X159949499Y-101818543D01*
X159987947Y-102011829D01*
X159987950Y-102011839D01*
X160063364Y-102193907D01*
X160063371Y-102193920D01*
X160172860Y-102357781D01*
X160172863Y-102357785D01*
X160312214Y-102497136D01*
X160312218Y-102497139D01*
X160476079Y-102606628D01*
X160476092Y-102606635D01*
X160658160Y-102682049D01*
X160658165Y-102682051D01*
X160658169Y-102682051D01*
X160658170Y-102682052D01*
X160851456Y-102720500D01*
X160851459Y-102720500D01*
X161048543Y-102720500D01*
X161178582Y-102694632D01*
X161241835Y-102682051D01*
X161423914Y-102606632D01*
X161587782Y-102497139D01*
X161727139Y-102357782D01*
X161836632Y-102193914D01*
X161912051Y-102011835D01*
X161950500Y-101818541D01*
X161950500Y-101621459D01*
X161950500Y-101621456D01*
X161912052Y-101428170D01*
X161912051Y-101428169D01*
X161912051Y-101428165D01*
X161869680Y-101325873D01*
X161862212Y-101256407D01*
X161884977Y-101204111D01*
X161893796Y-101192331D01*
X161944091Y-101057483D01*
X161950500Y-100997873D01*
X161950499Y-99902128D01*
X161944091Y-99842517D01*
X161914182Y-99762328D01*
X161893797Y-99707671D01*
X161893793Y-99707664D01*
X161809576Y-99595166D01*
X161807546Y-99592454D01*
X161734492Y-99537765D01*
X161692622Y-99481833D01*
X161687638Y-99412141D01*
X161721123Y-99350818D01*
X161782447Y-99317334D01*
X161808804Y-99314500D01*
X164875501Y-99314500D01*
X164942540Y-99334185D01*
X164988295Y-99386989D01*
X164999501Y-99438500D01*
X164999501Y-99567876D01*
X165005908Y-99627483D01*
X165056202Y-99762328D01*
X165056206Y-99762335D01*
X165142452Y-99877544D01*
X165142455Y-99877547D01*
X165257664Y-99963793D01*
X165257671Y-99963797D01*
X165392517Y-100014091D01*
X165392516Y-100014091D01*
X165399444Y-100014835D01*
X165452127Y-100020500D01*
X166547872Y-100020499D01*
X166607483Y-100014091D01*
X166742331Y-99963796D01*
X166857546Y-99877546D01*
X166943796Y-99762331D01*
X166994091Y-99627483D01*
X167000500Y-99567873D01*
X167000499Y-98472128D01*
X166994091Y-98412517D01*
X166984014Y-98385500D01*
X166943797Y-98277671D01*
X166943795Y-98277668D01*
X166934976Y-98265887D01*
X166910558Y-98200423D01*
X166919679Y-98144128D01*
X166962051Y-98041835D01*
X166995507Y-97873642D01*
X167000500Y-97848543D01*
X167000500Y-97651456D01*
X166962052Y-97458170D01*
X166962051Y-97458169D01*
X166962051Y-97458165D01*
X166941638Y-97408884D01*
X166886635Y-97276092D01*
X166886633Y-97276088D01*
X166886632Y-97276086D01*
X166875113Y-97258846D01*
X166825029Y-97183891D01*
X166804151Y-97117214D01*
X166822635Y-97049834D01*
X166825029Y-97046109D01*
X166858149Y-96996541D01*
X166886632Y-96953914D01*
X166962051Y-96771835D01*
X166999116Y-96585500D01*
X167000500Y-96578543D01*
X167000500Y-96381456D01*
X166962052Y-96188170D01*
X166962051Y-96188169D01*
X166962051Y-96188165D01*
X166955986Y-96173523D01*
X166886635Y-96006092D01*
X166886628Y-96006079D01*
X166777139Y-95842218D01*
X166777136Y-95842214D01*
X166637785Y-95702863D01*
X166637781Y-95702860D01*
X166473920Y-95593371D01*
X166473907Y-95593364D01*
X166291839Y-95517950D01*
X166291829Y-95517947D01*
X166098543Y-95479500D01*
X166098541Y-95479500D01*
X165901459Y-95479500D01*
X165901457Y-95479500D01*
X165708170Y-95517947D01*
X165708160Y-95517950D01*
X165526092Y-95593364D01*
X165526079Y-95593371D01*
X165362218Y-95702860D01*
X165362214Y-95702863D01*
X165222863Y-95842214D01*
X165222860Y-95842218D01*
X165113371Y-96006079D01*
X165113364Y-96006092D01*
X165037950Y-96188160D01*
X165037947Y-96188170D01*
X164999500Y-96381456D01*
X164999500Y-96381459D01*
X164999500Y-96578541D01*
X164999500Y-96578543D01*
X164999499Y-96578543D01*
X165037947Y-96771829D01*
X165037950Y-96771839D01*
X165070579Y-96850612D01*
X165113368Y-96953914D01*
X165148455Y-97006425D01*
X165174971Y-97046110D01*
X165195848Y-97112787D01*
X165177363Y-97180167D01*
X165174971Y-97183890D01*
X165113366Y-97276089D01*
X165037950Y-97458160D01*
X165037947Y-97458170D01*
X164999500Y-97651456D01*
X164999500Y-97848545D01*
X165037048Y-98037309D01*
X165030821Y-98106900D01*
X164987958Y-98162078D01*
X164922068Y-98185322D01*
X164915431Y-98185500D01*
X161496747Y-98185500D01*
X161429708Y-98165815D01*
X161427857Y-98164603D01*
X161335781Y-98103080D01*
X161202937Y-98048055D01*
X161202927Y-98048052D01*
X161061901Y-98020000D01*
X161061899Y-98020000D01*
X160918101Y-98020000D01*
X160918099Y-98020000D01*
X160777072Y-98048052D01*
X160777062Y-98048055D01*
X160644218Y-98103080D01*
X160558890Y-98160095D01*
X160492213Y-98180972D01*
X160424833Y-98162487D01*
X160421110Y-98160095D01*
X160335781Y-98103080D01*
X160202937Y-98048055D01*
X160202927Y-98048052D01*
X160061901Y-98020000D01*
X160061899Y-98020000D01*
X159918101Y-98020000D01*
X159918099Y-98020000D01*
X159777072Y-98048052D01*
X159777062Y-98048055D01*
X159644218Y-98103080D01*
X159524649Y-98182973D01*
X159422974Y-98284648D01*
X159422970Y-98284653D01*
X159392412Y-98330389D01*
X159338801Y-98375195D01*
X159289309Y-98385500D01*
X157424318Y-98385500D01*
X157275682Y-98385500D01*
X157132111Y-98423970D01*
X157132109Y-98423970D01*
X157132109Y-98423971D01*
X157003389Y-98498288D01*
X157003386Y-98498290D01*
X155527198Y-99974477D01*
X155527197Y-99974479D01*
X155483607Y-100049981D01*
X155475077Y-100064755D01*
X155475076Y-100064756D01*
X155452881Y-100103198D01*
X155452880Y-100103199D01*
X155435491Y-100168098D01*
X155414410Y-100246772D01*
X155414410Y-100246774D01*
X155414410Y-100343455D01*
X155394725Y-100410494D01*
X155393513Y-100412345D01*
X155331990Y-100504420D01*
X155276965Y-100637264D01*
X155276962Y-100637274D01*
X155248910Y-100778300D01*
X155248910Y-100778303D01*
X155248910Y-100922101D01*
X155248910Y-100922103D01*
X155248909Y-100922103D01*
X153652949Y-100922103D01*
X153266905Y-100536059D01*
X153266885Y-100536037D01*
X153123211Y-100392363D01*
X153123207Y-100392360D01*
X152959346Y-100282871D01*
X152959337Y-100282866D01*
X152872197Y-100246772D01*
X152830591Y-100229538D01*
X152777262Y-100207449D01*
X152777258Y-100207448D01*
X152777254Y-100207446D01*
X152680614Y-100188224D01*
X152583970Y-100169000D01*
X152583967Y-100169000D01*
X151819249Y-100169000D01*
X151819229Y-100168999D01*
X151813115Y-100168999D01*
X151616034Y-100168999D01*
X151616031Y-100168999D01*
X151422746Y-100207446D01*
X151422738Y-100207448D01*
X151240662Y-100282866D01*
X151240653Y-100282871D01*
X151076793Y-100392359D01*
X151076789Y-100392362D01*
X150582236Y-100886917D01*
X150487220Y-100981933D01*
X150487218Y-100981935D01*
X150419232Y-101049921D01*
X150347859Y-101121293D01*
X150238371Y-101285154D01*
X150238366Y-101285163D01*
X150193370Y-101393796D01*
X150179132Y-101428170D01*
X150162949Y-101467238D01*
X150157005Y-101497119D01*
X150124500Y-101660533D01*
X150124500Y-103048541D01*
X150124500Y-103048543D01*
X150124499Y-103048543D01*
X145800500Y-103048543D01*
X145800500Y-97049977D01*
X147034500Y-97049977D01*
X147034500Y-97250022D01*
X147073523Y-97446203D01*
X147073526Y-97446215D01*
X147150071Y-97631013D01*
X147150078Y-97631026D01*
X147261208Y-97797343D01*
X147261211Y-97797347D01*
X147276183Y-97812319D01*
X147309668Y-97873642D01*
X147304684Y-97943334D01*
X147276183Y-97987681D01*
X147261211Y-98002652D01*
X147261208Y-98002656D01*
X147150078Y-98168973D01*
X147150071Y-98168986D01*
X147073526Y-98353784D01*
X147073523Y-98353796D01*
X147034500Y-98549977D01*
X147034500Y-98750022D01*
X147073523Y-98946203D01*
X147073526Y-98946215D01*
X147150071Y-99131013D01*
X147150078Y-99131026D01*
X147261208Y-99297343D01*
X147261211Y-99297347D01*
X147276183Y-99312319D01*
X147309668Y-99373642D01*
X147304684Y-99443334D01*
X147276183Y-99487681D01*
X147261211Y-99502652D01*
X147261208Y-99502656D01*
X147150078Y-99668973D01*
X147150071Y-99668986D01*
X147073526Y-99853784D01*
X147073523Y-99853796D01*
X147034500Y-100049977D01*
X147034500Y-100250022D01*
X147073523Y-100446203D01*
X147073526Y-100446215D01*
X147150071Y-100631013D01*
X147150078Y-100631026D01*
X147261208Y-100797343D01*
X147261211Y-100797347D01*
X147402652Y-100938788D01*
X147402656Y-100938791D01*
X147568973Y-101049921D01*
X147568986Y-101049928D01*
X147680920Y-101096292D01*
X147753789Y-101126475D01*
X147949977Y-101165499D01*
X147949981Y-101165500D01*
X147949982Y-101165500D01*
X148850019Y-101165500D01*
X148850020Y-101165499D01*
X149046211Y-101126475D01*
X149231020Y-101049925D01*
X149397344Y-100938791D01*
X149538791Y-100797344D01*
X149649925Y-100631020D01*
X149726475Y-100446211D01*
X149765500Y-100250018D01*
X149765500Y-100049982D01*
X149726475Y-99853789D01*
X149693696Y-99774652D01*
X149649928Y-99668986D01*
X149649921Y-99668973D01*
X149538792Y-99502657D01*
X149538787Y-99502652D01*
X149523816Y-99487681D01*
X149522908Y-99486018D01*
X149521273Y-99485062D01*
X149506238Y-99455492D01*
X149490331Y-99426361D01*
X149490466Y-99424469D01*
X149489607Y-99422780D01*
X149492947Y-99389766D01*
X149495314Y-99356669D01*
X149496510Y-99354551D01*
X149496641Y-99353265D01*
X149500670Y-99347194D01*
X149514460Y-99322800D01*
X149518838Y-99317296D01*
X149538791Y-99297344D01*
X149560184Y-99265326D01*
X149563388Y-99261300D01*
X149587915Y-99244041D01*
X149610934Y-99224804D01*
X149617072Y-99223526D01*
X149620530Y-99221093D01*
X149630836Y-99220660D01*
X149660425Y-99214500D01*
X150024315Y-99214500D01*
X150024318Y-99214500D01*
X150167889Y-99176030D01*
X150296611Y-99101713D01*
X151247505Y-98150819D01*
X151308828Y-98117334D01*
X151335186Y-98114500D01*
X155924315Y-98114500D01*
X155924318Y-98114500D01*
X156067889Y-98076030D01*
X156196611Y-98001713D01*
X156804006Y-97394316D01*
X156865329Y-97360832D01*
X156891687Y-97357998D01*
X158193253Y-97357998D01*
X158260292Y-97377683D01*
X158262143Y-97378895D01*
X158354218Y-97440417D01*
X158487062Y-97495442D01*
X158487067Y-97495444D01*
X158487071Y-97495444D01*
X158487072Y-97495445D01*
X158628098Y-97523498D01*
X158628101Y-97523498D01*
X158771901Y-97523498D01*
X158887515Y-97500500D01*
X158912933Y-97495444D01*
X159031783Y-97446215D01*
X159045781Y-97440417D01*
X159045782Y-97440416D01*
X159045785Y-97440415D01*
X159165348Y-97360526D01*
X159267028Y-97258846D01*
X159346917Y-97139283D01*
X159353212Y-97124087D01*
X159377833Y-97064646D01*
X159401946Y-97006431D01*
X159430000Y-96865397D01*
X159430000Y-96721599D01*
X159430000Y-96721596D01*
X159401947Y-96580570D01*
X159401946Y-96580569D01*
X159401946Y-96580565D01*
X159401910Y-96580477D01*
X159346919Y-96447716D01*
X159267026Y-96328147D01*
X159165350Y-96226471D01*
X159053262Y-96151577D01*
X160749500Y-96151577D01*
X160749500Y-96348422D01*
X160780290Y-96542826D01*
X160841117Y-96730029D01*
X160904180Y-96853796D01*
X160930476Y-96905405D01*
X161046172Y-97064646D01*
X161185354Y-97203828D01*
X161344595Y-97319524D01*
X161425667Y-97360832D01*
X161519970Y-97408882D01*
X161519972Y-97408882D01*
X161519975Y-97408884D01*
X161617017Y-97440415D01*
X161707173Y-97469709D01*
X161901578Y-97500500D01*
X161901583Y-97500500D01*
X162098422Y-97500500D01*
X162292826Y-97469709D01*
X162328339Y-97458170D01*
X162480025Y-97408884D01*
X162655405Y-97319524D01*
X162814646Y-97203828D01*
X162953828Y-97064646D01*
X163069524Y-96905405D01*
X163158884Y-96730025D01*
X163219709Y-96542826D01*
X163234773Y-96447716D01*
X163250500Y-96348422D01*
X163250500Y-96151577D01*
X163219709Y-95957173D01*
X163164439Y-95787072D01*
X163158884Y-95769975D01*
X163158882Y-95769972D01*
X163158882Y-95769970D01*
X163069523Y-95594594D01*
X162953828Y-95435354D01*
X162814646Y-95296172D01*
X162655405Y-95180476D01*
X162480029Y-95091117D01*
X162292826Y-95030290D01*
X162098422Y-94999500D01*
X162098417Y-94999500D01*
X161901583Y-94999500D01*
X161901578Y-94999500D01*
X161707173Y-95030290D01*
X161519970Y-95091117D01*
X161344594Y-95180476D01*
X161253741Y-95246485D01*
X161185354Y-95296172D01*
X161185352Y-95296174D01*
X161185351Y-95296174D01*
X161046174Y-95435351D01*
X161046174Y-95435352D01*
X161046172Y-95435354D01*
X161046066Y-95435500D01*
X160930476Y-95594594D01*
X160841117Y-95769970D01*
X160780290Y-95957173D01*
X160749500Y-96151577D01*
X159053262Y-96151577D01*
X159045785Y-96146581D01*
X158913049Y-96091600D01*
X158858646Y-96047759D01*
X158836581Y-95981465D01*
X158836502Y-95977039D01*
X158836502Y-95928098D01*
X158808449Y-95787072D01*
X158808448Y-95787071D01*
X158808448Y-95787067D01*
X158773569Y-95702861D01*
X158753421Y-95654218D01*
X158673528Y-95534649D01*
X158571852Y-95432973D01*
X158452283Y-95353080D01*
X158319439Y-95298055D01*
X158319429Y-95298052D01*
X158178403Y-95270000D01*
X158178401Y-95270000D01*
X158034603Y-95270000D01*
X158034601Y-95270000D01*
X157893574Y-95298052D01*
X157893564Y-95298055D01*
X157760720Y-95353080D01*
X157668645Y-95414603D01*
X157601968Y-95435480D01*
X157599755Y-95435500D01*
X155825682Y-95435500D01*
X155682111Y-95473970D01*
X155682109Y-95473970D01*
X155682105Y-95473972D01*
X155634996Y-95501169D01*
X155634995Y-95501171D01*
X155577010Y-95534649D01*
X155553389Y-95548287D01*
X155553386Y-95548289D01*
X155202495Y-95899181D01*
X155141172Y-95932666D01*
X155114814Y-95935500D01*
X150525682Y-95935500D01*
X150382111Y-95973970D01*
X150382109Y-95973970D01*
X150382105Y-95973972D01*
X150334996Y-96001169D01*
X150334997Y-96001170D01*
X150253389Y-96048287D01*
X150253386Y-96048289D01*
X149752495Y-96549181D01*
X149725567Y-96563884D01*
X149699749Y-96580477D01*
X149693548Y-96581368D01*
X149691172Y-96582666D01*
X149664814Y-96585500D01*
X149660425Y-96585500D01*
X149593386Y-96565815D01*
X149557322Y-96530390D01*
X149538789Y-96502653D01*
X149397347Y-96361211D01*
X149397343Y-96361208D01*
X149231026Y-96250078D01*
X149231013Y-96250071D01*
X149046215Y-96173526D01*
X149046203Y-96173523D01*
X148850022Y-96134500D01*
X148850018Y-96134500D01*
X147949982Y-96134500D01*
X147949977Y-96134500D01*
X147753796Y-96173523D01*
X147753784Y-96173526D01*
X147568986Y-96250071D01*
X147568973Y-96250078D01*
X147402656Y-96361208D01*
X147402652Y-96361211D01*
X147261211Y-96502652D01*
X147261208Y-96502656D01*
X147150078Y-96668973D01*
X147150071Y-96668986D01*
X147073526Y-96853784D01*
X147073523Y-96853796D01*
X147034500Y-97049977D01*
X145800500Y-97049977D01*
X145800500Y-94258125D01*
X145801561Y-94241940D01*
X145813685Y-94149847D01*
X145813685Y-94149846D01*
X145822063Y-94118579D01*
X145843415Y-94067031D01*
X145854476Y-94040328D01*
X145870659Y-94012300D01*
X145922219Y-93945107D01*
X145945107Y-93922219D01*
X146012300Y-93870659D01*
X146040328Y-93854476D01*
X146118580Y-93822062D01*
X146149846Y-93813685D01*
X146241941Y-93801561D01*
X146258126Y-93800500D01*
X146266408Y-93800500D01*
X166983592Y-93800500D01*
X166991874Y-93800500D01*
X167008059Y-93801561D01*
G37*
G04 #@! TD.AperFunction*
M02*
