G04 #@! TF.GenerationSoftware,KiCad,Pcbnew,9.0.0*
G04 #@! TF.CreationDate,2025-03-03T20:11:52-05:00*
G04 #@! TF.ProjectId,pcb,7063622e-6b69-4636-9164-5f7063625858,rev?*
G04 #@! TF.SameCoordinates,Original*
G04 #@! TF.FileFunction,Copper,L1,Top*
G04 #@! TF.FilePolarity,Positive*
%FSLAX46Y46*%
G04 Gerber Fmt 4.6, Leading zero omitted, Abs format (unit mm)*
G04 Created by KiCad (PCBNEW 9.0.0) date 2025-03-03 20:11:52*
%MOMM*%
%LPD*%
G01*
G04 APERTURE LIST*
G04 Aperture macros list*
%AMRoundRect*
0 Rectangle with rounded corners*
0 $1 Rounding radius*
0 $2 $3 $4 $5 $6 $7 $8 $9 X,Y pos of 4 corners*
0 Add a 4 corners polygon primitive as box body*
4,1,4,$2,$3,$4,$5,$6,$7,$8,$9,$2,$3,0*
0 Add four circle primitives for the rounded corners*
1,1,$1+$1,$2,$3*
1,1,$1+$1,$4,$5*
1,1,$1+$1,$6,$7*
1,1,$1+$1,$8,$9*
0 Add four rect primitives between the rounded corners*
20,1,$1+$1,$2,$3,$4,$5,0*
20,1,$1+$1,$4,$5,$6,$7,0*
20,1,$1+$1,$6,$7,$8,$9,0*
20,1,$1+$1,$8,$9,$2,$3,0*%
G04 Aperture macros list end*
G04 #@! TA.AperFunction,ComponentPad*
%ADD10RoundRect,0.250000X-0.265000X-0.615000X0.265000X-0.615000X0.265000X0.615000X-0.265000X0.615000X0*%
G04 #@! TD*
G04 #@! TA.AperFunction,ComponentPad*
%ADD11O,1.030000X1.730000*%
G04 #@! TD*
G04 #@! TA.AperFunction,ComponentPad*
%ADD12R,1.000000X1.000000*%
G04 #@! TD*
G04 #@! TA.AperFunction,ComponentPad*
%ADD13O,1.000000X1.000000*%
G04 #@! TD*
G04 #@! TA.AperFunction,ComponentPad*
%ADD14RoundRect,0.250000X-0.615000X0.265000X-0.615000X-0.265000X0.615000X-0.265000X0.615000X0.265000X0*%
G04 #@! TD*
G04 #@! TA.AperFunction,ComponentPad*
%ADD15O,1.730000X1.030000*%
G04 #@! TD*
G04 #@! TA.AperFunction,SMDPad,CuDef*
%ADD16RoundRect,0.140000X0.170000X-0.140000X0.170000X0.140000X-0.170000X0.140000X-0.170000X-0.140000X0*%
G04 #@! TD*
G04 #@! TA.AperFunction,SMDPad,CuDef*
%ADD17RoundRect,0.140000X0.140000X0.170000X-0.140000X0.170000X-0.140000X-0.170000X0.140000X-0.170000X0*%
G04 #@! TD*
G04 #@! TA.AperFunction,SMDPad,CuDef*
%ADD18RoundRect,0.140000X-0.140000X-0.170000X0.140000X-0.170000X0.140000X0.170000X-0.140000X0.170000X0*%
G04 #@! TD*
G04 #@! TA.AperFunction,SMDPad,CuDef*
%ADD19RoundRect,0.250000X-0.475000X0.250000X-0.475000X-0.250000X0.475000X-0.250000X0.475000X0.250000X0*%
G04 #@! TD*
G04 #@! TA.AperFunction,SMDPad,CuDef*
%ADD20R,0.254000X0.762000*%
G04 #@! TD*
G04 #@! TA.AperFunction,SMDPad,CuDef*
%ADD21R,0.762000X0.254000*%
G04 #@! TD*
G04 #@! TA.AperFunction,SMDPad,CuDef*
%ADD22R,1.498600X1.498600*%
G04 #@! TD*
G04 #@! TA.AperFunction,SMDPad,CuDef*
%ADD23RoundRect,0.062500X0.062500X-0.187500X0.062500X0.187500X-0.062500X0.187500X-0.062500X-0.187500X0*%
G04 #@! TD*
G04 #@! TA.AperFunction,SMDPad,CuDef*
%ADD24R,1.600000X0.900000*%
G04 #@! TD*
G04 #@! TA.AperFunction,SMDPad,CuDef*
%ADD25RoundRect,0.150000X0.150000X-0.512500X0.150000X0.512500X-0.150000X0.512500X-0.150000X-0.512500X0*%
G04 #@! TD*
G04 #@! TA.AperFunction,SMDPad,CuDef*
%ADD26RoundRect,0.135000X0.185000X-0.135000X0.185000X0.135000X-0.185000X0.135000X-0.185000X-0.135000X0*%
G04 #@! TD*
G04 #@! TA.AperFunction,SMDPad,CuDef*
%ADD27RoundRect,0.135000X-0.135000X-0.185000X0.135000X-0.185000X0.135000X0.185000X-0.135000X0.185000X0*%
G04 #@! TD*
G04 #@! TA.AperFunction,ViaPad*
%ADD28C,0.459000*%
G04 #@! TD*
G04 #@! TA.AperFunction,Conductor*
%ADD29C,0.128000*%
G04 #@! TD*
G04 #@! TA.AperFunction,Conductor*
%ADD30C,0.500000*%
G04 #@! TD*
G04 #@! TA.AperFunction,Conductor*
%ADD31C,1.000000*%
G04 #@! TD*
G04 #@! TA.AperFunction,Conductor*
%ADD32C,0.250000*%
G04 #@! TD*
G04 #@! TA.AperFunction,Conductor*
%ADD33C,0.300000*%
G04 #@! TD*
G04 APERTURE END LIST*
D10*
X156550000Y-105500000D03*
D11*
X158050000Y-105500000D03*
D12*
X166000000Y-99020000D03*
D13*
X166000000Y-97750000D03*
X166000000Y-96480000D03*
X166000000Y-95210000D03*
D12*
X160950000Y-100450000D03*
D13*
X160950000Y-101720000D03*
D14*
X148400000Y-95650000D03*
D15*
X148400000Y-97150000D03*
X148400000Y-98650000D03*
X148400000Y-100150000D03*
D10*
X148750000Y-105500000D03*
D11*
X150250000Y-105500000D03*
D16*
X154850000Y-103080000D03*
X154850000Y-102120000D03*
D10*
X164050000Y-105500000D03*
D11*
X165550000Y-105500000D03*
D17*
X153750000Y-103900000D03*
X152790000Y-103900000D03*
D18*
X151220000Y-98650000D03*
X152180000Y-98650000D03*
D19*
X154100000Y-96000000D03*
X154100000Y-97900000D03*
D20*
X156549999Y-99022400D03*
X157050000Y-99022400D03*
X157550000Y-99022400D03*
X158050001Y-99022400D03*
D21*
X158722400Y-98350001D03*
X158722400Y-97850000D03*
X158722400Y-97350000D03*
X158722400Y-96849999D03*
D20*
X158050001Y-96177600D03*
X157550000Y-96177600D03*
X157050000Y-96177600D03*
X156549999Y-96177600D03*
D21*
X155877600Y-96849999D03*
X155877600Y-97350000D03*
X155877600Y-97850000D03*
X155877600Y-98350001D03*
D22*
X157300000Y-97600000D03*
D16*
X154850000Y-101110000D03*
X154850000Y-100150000D03*
D23*
X156050000Y-102750000D03*
X156550000Y-102750000D03*
X157050000Y-102750000D03*
X157550000Y-102750000D03*
X157550000Y-100850000D03*
X157050000Y-100850000D03*
X156550000Y-100850000D03*
X156050000Y-100850000D03*
D24*
X156800000Y-101800000D03*
D25*
X151137500Y-102487500D03*
X152087500Y-102487500D03*
X153037500Y-102487500D03*
X153037500Y-100212500D03*
X151137500Y-100212500D03*
D18*
X160570000Y-103500000D03*
X161530000Y-103500000D03*
D26*
X158850000Y-101260000D03*
X158850000Y-100240000D03*
D27*
X159990000Y-98750000D03*
X161010000Y-98750000D03*
D28*
X151125000Y-102950000D03*
X153050000Y-102950000D03*
X153050000Y-102025000D03*
X151125000Y-102025000D03*
X153037500Y-102487500D03*
X151137500Y-102487500D03*
X155978910Y-100850202D03*
X159990000Y-98750000D03*
X161530000Y-103500000D03*
X158700000Y-96793498D03*
X158106502Y-96000000D03*
X160990000Y-98750000D03*
X157550000Y-99650000D03*
X158850000Y-100240000D03*
X153800000Y-96000000D03*
X152180000Y-98650000D03*
X156950000Y-97300000D03*
X157650000Y-97300000D03*
X157650000Y-97900000D03*
X156950000Y-97900000D03*
X154350000Y-96000000D03*
X157300000Y-101800000D03*
X156800000Y-101800000D03*
X156300000Y-101800000D03*
X154850000Y-102120000D03*
X154850000Y-101110000D03*
X152790000Y-103900000D03*
X152087500Y-102875000D03*
X152087500Y-102487500D03*
X152100000Y-102100000D03*
D29*
X164050000Y-105500000D02*
X163300000Y-104750000D01*
X163300000Y-104750000D02*
X163300000Y-99650000D01*
X160600000Y-98000000D02*
X160058000Y-97458000D01*
X161650000Y-98000000D02*
X160600000Y-98000000D01*
X163300000Y-99650000D02*
X161650000Y-98000000D01*
X158830400Y-97458000D02*
X158722400Y-97350000D01*
X160058000Y-97458000D02*
X158830400Y-97458000D01*
D30*
X151125000Y-102025000D02*
X151125000Y-101933400D01*
X152586499Y-101374000D02*
X153050000Y-101837501D01*
X151125000Y-101933400D02*
X151684400Y-101374000D01*
X151684400Y-101374000D02*
X152586499Y-101374000D01*
X153050000Y-101837501D02*
X153050000Y-102025000D01*
D31*
X154100000Y-97900000D02*
X153600062Y-97400062D01*
X153600062Y-97400062D02*
X151926702Y-97400062D01*
X151926702Y-97400062D02*
X151199000Y-98127764D01*
X151199000Y-98127764D02*
X151199000Y-98650000D01*
D29*
X148750000Y-105500000D02*
X150350000Y-107100000D01*
X165800000Y-107100000D02*
X166750000Y-106150000D01*
X166750000Y-106150000D02*
X166750000Y-103300000D01*
X164150000Y-100700000D02*
X164150000Y-98200000D01*
X150350000Y-107100000D02*
X165800000Y-107100000D01*
X166750000Y-103300000D02*
X164150000Y-100700000D01*
X164150000Y-98200000D02*
X163550000Y-97600000D01*
X163550000Y-97600000D02*
X160900000Y-97600000D01*
X157839601Y-95350000D02*
X157550000Y-95639601D01*
X160900000Y-97600000D02*
X158650000Y-95350000D01*
X158650000Y-95350000D02*
X157839601Y-95350000D01*
X157550000Y-95639601D02*
X157550000Y-96177600D01*
D31*
X151137500Y-100212500D02*
X151137500Y-98711500D01*
X151137500Y-98711500D02*
X151199000Y-98650000D01*
D32*
X156297000Y-96897000D02*
X156249999Y-96849999D01*
X156249999Y-96849999D02*
X155877600Y-96849999D01*
X156950000Y-97300000D02*
X157000000Y-97350000D01*
X157000000Y-97350000D02*
X157050000Y-97350000D01*
X157050000Y-97350000D02*
X157300000Y-97600000D01*
X156597000Y-96897000D02*
X156297000Y-96897000D01*
X156950000Y-97300000D02*
X156950000Y-97250000D01*
X156950000Y-97250000D02*
X156597000Y-96897000D01*
D29*
X158722400Y-96815898D02*
X158700000Y-96793498D01*
X158722400Y-96849999D02*
X158722400Y-96815898D01*
X158050001Y-96177600D02*
X158050001Y-96056501D01*
X158050001Y-96056501D02*
X158106502Y-96000000D01*
X156549999Y-99022400D02*
X156450000Y-99122399D01*
X156450000Y-100663102D02*
X156465000Y-100678102D01*
X156450000Y-99122399D02*
X156450000Y-100663102D01*
X156465000Y-100678102D02*
X156465000Y-100765000D01*
X156465000Y-100765000D02*
X156550000Y-100850000D01*
X157050000Y-99022400D02*
X156950000Y-99122400D01*
X156950000Y-99122400D02*
X156950000Y-100750000D01*
X156950000Y-100750000D02*
X157050000Y-100850000D01*
X158050001Y-99022400D02*
X158150000Y-99122399D01*
X158150000Y-99122399D02*
X158150000Y-100250000D01*
X158150000Y-100250000D02*
X157550000Y-100850000D01*
X157550000Y-99022400D02*
X157550000Y-99650000D01*
X160950000Y-100450000D02*
X159660000Y-100450000D01*
X159660000Y-100450000D02*
X158850000Y-101260000D01*
D30*
X160570000Y-103500000D02*
X160570000Y-102100000D01*
X160570000Y-102100000D02*
X160950000Y-101720000D01*
X152087500Y-102875000D02*
X152087500Y-102487500D01*
D33*
X156050000Y-100850000D02*
X155350000Y-100150000D01*
X155350000Y-100150000D02*
X154850000Y-100150000D01*
D30*
X152790000Y-103900000D02*
X152087500Y-103197500D01*
X152087500Y-103197500D02*
X152087500Y-102875000D01*
D29*
X157050000Y-96177600D02*
X157050000Y-95550000D01*
X162850000Y-94625000D02*
X165975000Y-97750000D01*
X157050000Y-95550000D02*
X157975000Y-94625000D01*
X157975000Y-94625000D02*
X162850000Y-94625000D01*
X165975000Y-97750000D02*
X166000000Y-97750000D01*
X160990000Y-98750000D02*
X160990000Y-100410000D01*
X160990000Y-100410000D02*
X160950000Y-100450000D01*
X166000000Y-96480000D02*
X165980000Y-96480000D01*
X165980000Y-96480000D02*
X163475000Y-93975000D01*
X163475000Y-93975000D02*
X157425000Y-93975000D01*
X157425000Y-93975000D02*
X156549999Y-94850001D01*
X156549999Y-94850001D02*
X156549999Y-96177600D01*
G04 #@! TA.AperFunction,Conductor*
G36*
X156568854Y-93820185D02*
G01*
X156614609Y-93872989D01*
X156624553Y-93942147D01*
X156595528Y-94005703D01*
X156589496Y-94012181D01*
X156098287Y-94503388D01*
X156098281Y-94503396D01*
X156023972Y-94632105D01*
X156023969Y-94632110D01*
X156004734Y-94703897D01*
X155985499Y-94775683D01*
X155985499Y-94775685D01*
X155985499Y-95515016D01*
X155977681Y-95558349D01*
X155928907Y-95689117D01*
X155922500Y-95748716D01*
X155922499Y-95748735D01*
X155922499Y-96598500D01*
X155902814Y-96665539D01*
X155850010Y-96711294D01*
X155798499Y-96722500D01*
X155448730Y-96722500D01*
X155448723Y-96722501D01*
X155389116Y-96728908D01*
X155254271Y-96779202D01*
X155254264Y-96779206D01*
X155139057Y-96865451D01*
X155139050Y-96865457D01*
X155120970Y-96889610D01*
X155065036Y-96931480D01*
X154995344Y-96936464D01*
X154980453Y-96932235D01*
X154931529Y-96914976D01*
X154931531Y-96914976D01*
X154829800Y-96900350D01*
X154789110Y-96894500D01*
X154789108Y-96894500D01*
X154560782Y-96894500D01*
X154531341Y-96885855D01*
X154501355Y-96879332D01*
X154496339Y-96875577D01*
X154493743Y-96874815D01*
X154473101Y-96858181D01*
X154381541Y-96766621D01*
X154381521Y-96766599D01*
X154237847Y-96622925D01*
X154237843Y-96622922D01*
X154073982Y-96513433D01*
X154073969Y-96513426D01*
X153921872Y-96450426D01*
X153921866Y-96450424D01*
X153913326Y-96446887D01*
X153891898Y-96438011D01*
X153795250Y-96418786D01*
X153785490Y-96416844D01*
X153698606Y-96399562D01*
X153698603Y-96399562D01*
X151828161Y-96399562D01*
X151828157Y-96399562D01*
X151734404Y-96418211D01*
X151734400Y-96418211D01*
X151731514Y-96418786D01*
X151634866Y-96438011D01*
X151613438Y-96446887D01*
X151604897Y-96450424D01*
X151604892Y-96450426D01*
X151452790Y-96513428D01*
X151452781Y-96513433D01*
X151288921Y-96622921D01*
X151246304Y-96665539D01*
X151149563Y-96762280D01*
X151149560Y-96762283D01*
X150561221Y-97350622D01*
X150561218Y-97350625D01*
X150491538Y-97420304D01*
X150421859Y-97489983D01*
X150312369Y-97653846D01*
X150278684Y-97735169D01*
X150278681Y-97735178D01*
X150276683Y-97740002D01*
X150236949Y-97835928D01*
X150222272Y-97909712D01*
X150220915Y-97916531D01*
X150220915Y-97916533D01*
X150198500Y-98029219D01*
X150198500Y-98339348D01*
X150194129Y-98371982D01*
X150192063Y-98379552D01*
X150175449Y-98419664D01*
X150161024Y-98492182D01*
X150160176Y-98496444D01*
X150160176Y-98496445D01*
X150137000Y-98612957D01*
X150137000Y-99276866D01*
X150117315Y-99343905D01*
X150064511Y-99389660D01*
X149995353Y-99399604D01*
X149931797Y-99370579D01*
X149903369Y-99334806D01*
X149877284Y-99285450D01*
X149877282Y-99285446D01*
X149872025Y-99277524D01*
X149866046Y-99268718D01*
X149768000Y-99163416D01*
X149767995Y-99163413D01*
X149754852Y-99155615D01*
X149707241Y-99104478D01*
X149694835Y-99035719D01*
X149703565Y-99001519D01*
X149704534Y-98999181D01*
X149726475Y-98946211D01*
X149765500Y-98750018D01*
X149765500Y-98549982D01*
X149726475Y-98353789D01*
X149681482Y-98245166D01*
X149649928Y-98168986D01*
X149649921Y-98168973D01*
X149538792Y-98002657D01*
X149538787Y-98002652D01*
X149523816Y-97987681D01*
X149490331Y-97926361D01*
X149495314Y-97856669D01*
X149523816Y-97812318D01*
X149538791Y-97797344D01*
X149649925Y-97631020D01*
X149657284Y-97613255D01*
X149708344Y-97489983D01*
X149726475Y-97446211D01*
X149765500Y-97250018D01*
X149765500Y-97049982D01*
X149726475Y-96853789D01*
X149695580Y-96779202D01*
X149649928Y-96668986D01*
X149649921Y-96668973D01*
X149538791Y-96502656D01*
X149538788Y-96502652D01*
X149397347Y-96361211D01*
X149397343Y-96361208D01*
X149231026Y-96250078D01*
X149231013Y-96250071D01*
X149046215Y-96173526D01*
X149046203Y-96173523D01*
X148850022Y-96134500D01*
X148850018Y-96134500D01*
X147949982Y-96134500D01*
X147949977Y-96134500D01*
X147753796Y-96173523D01*
X147753784Y-96173526D01*
X147568986Y-96250071D01*
X147568973Y-96250078D01*
X147402656Y-96361208D01*
X147402652Y-96361211D01*
X147261211Y-96502652D01*
X147261208Y-96502656D01*
X147150078Y-96668973D01*
X147150071Y-96668986D01*
X147073526Y-96853784D01*
X147073523Y-96853796D01*
X147034500Y-97049977D01*
X147034500Y-97250022D01*
X147073523Y-97446203D01*
X147073526Y-97446215D01*
X147150071Y-97631013D01*
X147150078Y-97631026D01*
X147261208Y-97797343D01*
X147261211Y-97797347D01*
X147276183Y-97812319D01*
X147309668Y-97873642D01*
X147304684Y-97943334D01*
X147276183Y-97987681D01*
X147261211Y-98002652D01*
X147261208Y-98002656D01*
X147150078Y-98168973D01*
X147150071Y-98168986D01*
X147073526Y-98353784D01*
X147073523Y-98353796D01*
X147034500Y-98549977D01*
X147034500Y-98750022D01*
X147073523Y-98946203D01*
X147073525Y-98946211D01*
X147095466Y-98999181D01*
X147097711Y-99004601D01*
X147105179Y-99074071D01*
X147073903Y-99136550D01*
X147067648Y-99142805D01*
X146963419Y-99239853D01*
X146963414Y-99239858D01*
X146890002Y-99363596D01*
X146889998Y-99363605D01*
X146882976Y-99380559D01*
X146864976Y-99431581D01*
X146856586Y-99489938D01*
X146844500Y-99574000D01*
X146844500Y-101865874D01*
X146846025Y-101905115D01*
X146863454Y-101982869D01*
X146877495Y-102045513D01*
X146877497Y-102045518D01*
X146883558Y-102061460D01*
X146898933Y-102097605D01*
X146898934Y-102097607D01*
X146898935Y-102097608D01*
X146978247Y-102217655D01*
X148372094Y-103785733D01*
X148500549Y-103930245D01*
X148530375Y-103993429D01*
X148521307Y-104062707D01*
X148476223Y-104116085D01*
X148420472Y-104135984D01*
X148332202Y-104145001D01*
X148332200Y-104145001D01*
X148165668Y-104200185D01*
X148165663Y-104200187D01*
X148016342Y-104292289D01*
X147892289Y-104416342D01*
X147800187Y-104565663D01*
X147800185Y-104565668D01*
X147772349Y-104649670D01*
X147745001Y-104732203D01*
X147745001Y-104732204D01*
X147745000Y-104732204D01*
X147734500Y-104834983D01*
X147734500Y-106165001D01*
X147734501Y-106165018D01*
X147745000Y-106267796D01*
X147745001Y-106267799D01*
X147795433Y-106419990D01*
X147800186Y-106434334D01*
X147892288Y-106583656D01*
X148016344Y-106707712D01*
X148165666Y-106799814D01*
X148332203Y-106854999D01*
X148434991Y-106865500D01*
X149065008Y-106865499D01*
X149065016Y-106865498D01*
X149065019Y-106865498D01*
X149085051Y-106863451D01*
X149167797Y-106854999D01*
X149199508Y-106844490D01*
X149269331Y-106842087D01*
X149326191Y-106874515D01*
X150003389Y-107551713D01*
X150003391Y-107551714D01*
X150003395Y-107551717D01*
X150084994Y-107598828D01*
X150115325Y-107616339D01*
X150132111Y-107626030D01*
X150275682Y-107664500D01*
X150275683Y-107664500D01*
X150275685Y-107664500D01*
X165874315Y-107664500D01*
X165874318Y-107664500D01*
X166017889Y-107626030D01*
X166146611Y-107551713D01*
X167201713Y-106496611D01*
X167218113Y-106468204D01*
X167268679Y-106419990D01*
X167337285Y-106406766D01*
X167402150Y-106432733D01*
X167442680Y-106489647D01*
X167449500Y-106530205D01*
X167449500Y-107491874D01*
X167448439Y-107508059D01*
X167448439Y-107508060D01*
X167436314Y-107600153D01*
X167427936Y-107631420D01*
X167395526Y-107709665D01*
X167379340Y-107737699D01*
X167327780Y-107804892D01*
X167304892Y-107827780D01*
X167237699Y-107879340D01*
X167209665Y-107895526D01*
X167131420Y-107927936D01*
X167100153Y-107936314D01*
X167017174Y-107947239D01*
X167008058Y-107948439D01*
X166991874Y-107949500D01*
X146258126Y-107949500D01*
X146241941Y-107948439D01*
X146231410Y-107947052D01*
X146149846Y-107936314D01*
X146118579Y-107927936D01*
X146040334Y-107895526D01*
X146012300Y-107879340D01*
X145945107Y-107827780D01*
X145922219Y-107804892D01*
X145870659Y-107737699D01*
X145854473Y-107709665D01*
X145822063Y-107631420D01*
X145813685Y-107600152D01*
X145801561Y-107508059D01*
X145800500Y-107491874D01*
X145800500Y-94258125D01*
X145801561Y-94241940D01*
X145813685Y-94149847D01*
X145813685Y-94149846D01*
X145822063Y-94118579D01*
X145843415Y-94067031D01*
X145854476Y-94040328D01*
X145870659Y-94012300D01*
X145922219Y-93945107D01*
X145945107Y-93922219D01*
X146012300Y-93870659D01*
X146040328Y-93854476D01*
X146118580Y-93822062D01*
X146149846Y-93813685D01*
X146241941Y-93801561D01*
X146258126Y-93800500D01*
X146266408Y-93800500D01*
X156501815Y-93800500D01*
X156568854Y-93820185D01*
G37*
G04 #@! TD.AperFunction*
G04 #@! TA.AperFunction,Conductor*
G36*
X150056293Y-104425185D02*
G01*
X150076935Y-104441819D01*
X151110515Y-105475399D01*
X151110549Y-105475432D01*
X151144183Y-105505642D01*
X151150798Y-105511584D01*
X151274539Y-105584998D01*
X151291510Y-105592027D01*
X151342526Y-105610024D01*
X151484942Y-105630500D01*
X151484945Y-105630500D01*
X154901003Y-105630500D01*
X154917206Y-105629631D01*
X154955020Y-105627605D01*
X155094432Y-105592027D01*
X155111403Y-105584998D01*
X155136075Y-105571525D01*
X155204343Y-105556674D01*
X155269808Y-105581089D01*
X155311681Y-105637022D01*
X155319500Y-105680358D01*
X155319500Y-106411500D01*
X155299815Y-106478539D01*
X155247011Y-106524294D01*
X155195500Y-106535500D01*
X150635186Y-106535500D01*
X150568147Y-106515815D01*
X150547505Y-106499181D01*
X149801818Y-105753494D01*
X149768333Y-105692171D01*
X149765499Y-105665813D01*
X149765499Y-104834998D01*
X149765498Y-104834981D01*
X149754999Y-104732203D01*
X149754998Y-104732200D01*
X149700754Y-104568504D01*
X149699774Y-104540039D01*
X149695722Y-104511853D01*
X149698589Y-104505574D01*
X149698352Y-104498676D01*
X149712915Y-104474204D01*
X149724747Y-104448297D01*
X149730554Y-104444564D01*
X149734084Y-104438634D01*
X149759566Y-104425920D01*
X149783525Y-104410523D01*
X149793220Y-104409128D01*
X149796604Y-104407441D01*
X149818460Y-104405500D01*
X149989254Y-104405500D01*
X150056293Y-104425185D01*
G37*
G04 #@! TD.AperFunction*
G04 #@! TA.AperFunction,Conductor*
G36*
X161890934Y-99070323D02*
G01*
X161914019Y-99073575D01*
X161927889Y-99083176D01*
X161934910Y-99085618D01*
X161939055Y-99090905D01*
X161950512Y-99098836D01*
X162699181Y-99847504D01*
X162732666Y-99908827D01*
X162735500Y-99935185D01*
X162735500Y-104675682D01*
X162735500Y-104824318D01*
X162738362Y-104834998D01*
X162773970Y-104967890D01*
X162773973Y-104967895D01*
X162848282Y-105096604D01*
X162848288Y-105096612D01*
X162998181Y-105246505D01*
X163031666Y-105307828D01*
X163034500Y-105334186D01*
X163034500Y-106165001D01*
X163034501Y-106165019D01*
X163045000Y-106267796D01*
X163045001Y-106267799D01*
X163079695Y-106372496D01*
X163082097Y-106442324D01*
X163046365Y-106502366D01*
X162983845Y-106533559D01*
X162961989Y-106535500D01*
X159404500Y-106535500D01*
X159337461Y-106515815D01*
X159291706Y-106463011D01*
X159280500Y-106411500D01*
X159280500Y-104114422D01*
X159274938Y-104039652D01*
X159274934Y-104039618D01*
X159273886Y-104032612D01*
X159273885Y-104032611D01*
X159273885Y-104032606D01*
X159238726Y-103908624D01*
X159205972Y-103854833D01*
X159163899Y-103785735D01*
X159163897Y-103785733D01*
X159152215Y-103771571D01*
X159152215Y-103771570D01*
X159115581Y-103731714D01*
X158999422Y-103646818D01*
X158999412Y-103646812D01*
X157744996Y-102980404D01*
X157738154Y-102973718D01*
X157729181Y-102970404D01*
X157713574Y-102949695D01*
X157695027Y-102931569D01*
X157691766Y-102920757D01*
X157687130Y-102914606D01*
X157680768Y-102884295D01*
X157679516Y-102880143D01*
X157679422Y-102878888D01*
X157677605Y-102844980D01*
X157676589Y-102841002D01*
X157675844Y-102831028D01*
X157676108Y-102829794D01*
X157675499Y-102821783D01*
X157675499Y-102525596D01*
X157675000Y-102521805D01*
X157675000Y-101597129D01*
X157759463Y-101586011D01*
X157759466Y-101586009D01*
X157759472Y-101586009D01*
X157896429Y-101529279D01*
X157896430Y-101529277D01*
X157898668Y-101528351D01*
X157968137Y-101520882D01*
X158030616Y-101552157D01*
X158065197Y-101608317D01*
X158077129Y-101649388D01*
X158077131Y-101649393D01*
X158158863Y-101787595D01*
X158158869Y-101787603D01*
X158272396Y-101901130D01*
X158272400Y-101901133D01*
X158272402Y-101901135D01*
X158410607Y-101982869D01*
X158450641Y-101994500D01*
X158564791Y-102027664D01*
X158564794Y-102027664D01*
X158564796Y-102027665D01*
X158600819Y-102030500D01*
X159099180Y-102030499D01*
X159135204Y-102027665D01*
X159289393Y-101982869D01*
X159427598Y-101901135D01*
X159541135Y-101787598D01*
X159622869Y-101649393D01*
X159667665Y-101495204D01*
X159670500Y-101459181D01*
X159670499Y-101289185D01*
X159679143Y-101259743D01*
X159685667Y-101229757D01*
X159689420Y-101224743D01*
X159690183Y-101222146D01*
X159706809Y-101201514D01*
X159790934Y-101117389D01*
X159852255Y-101083907D01*
X159921946Y-101088891D01*
X159977880Y-101130763D01*
X159994794Y-101161740D01*
X160006202Y-101192328D01*
X160006206Y-101192335D01*
X160015023Y-101204113D01*
X160039440Y-101269578D01*
X160030318Y-101325874D01*
X160018860Y-101353538D01*
X159987950Y-101428164D01*
X159987948Y-101428168D01*
X159987947Y-101428171D01*
X159949500Y-101621456D01*
X159949500Y-101640165D01*
X159929815Y-101707204D01*
X159928603Y-101709055D01*
X159904913Y-101744508D01*
X159848343Y-101881082D01*
X159848340Y-101881092D01*
X159819500Y-102026079D01*
X159819500Y-103117934D01*
X159814576Y-103152530D01*
X159792357Y-103229005D01*
X159792356Y-103229008D01*
X159789500Y-103265302D01*
X159789500Y-103734697D01*
X159792356Y-103770991D01*
X159792357Y-103770997D01*
X159837504Y-103926390D01*
X159837505Y-103926393D01*
X159919881Y-104065684D01*
X159919887Y-104065692D01*
X160034307Y-104180112D01*
X160034311Y-104180115D01*
X160034313Y-104180117D01*
X160173605Y-104262494D01*
X160214587Y-104274400D01*
X160329002Y-104307642D01*
X160329005Y-104307642D01*
X160329007Y-104307643D01*
X160365310Y-104310500D01*
X160365318Y-104310500D01*
X160774682Y-104310500D01*
X160774690Y-104310500D01*
X160810993Y-104307643D01*
X160810995Y-104307642D01*
X160810997Y-104307642D01*
X160863841Y-104292289D01*
X160966395Y-104262494D01*
X161105687Y-104180117D01*
X161220117Y-104065687D01*
X161302494Y-103926395D01*
X161347475Y-103771571D01*
X161347642Y-103770997D01*
X161347643Y-103770991D01*
X161350499Y-103734697D01*
X161350500Y-103734690D01*
X161350500Y-103265310D01*
X161347643Y-103229007D01*
X161325423Y-103152528D01*
X161320500Y-103117934D01*
X161320500Y-102732321D01*
X161340185Y-102665282D01*
X161392989Y-102619527D01*
X161397015Y-102617773D01*
X161423914Y-102606632D01*
X161587782Y-102497139D01*
X161727139Y-102357782D01*
X161836632Y-102193914D01*
X161912051Y-102011835D01*
X161950500Y-101818541D01*
X161950500Y-101621459D01*
X161950500Y-101621456D01*
X161912052Y-101428170D01*
X161912051Y-101428169D01*
X161912051Y-101428165D01*
X161869680Y-101325873D01*
X161862212Y-101256407D01*
X161884977Y-101204111D01*
X161893796Y-101192331D01*
X161944091Y-101057483D01*
X161950500Y-100997873D01*
X161950499Y-99902128D01*
X161944091Y-99842517D01*
X161914182Y-99762328D01*
X161893797Y-99707671D01*
X161893793Y-99707664D01*
X161807547Y-99592455D01*
X161807544Y-99592452D01*
X161685231Y-99500888D01*
X161686293Y-99499468D01*
X161644462Y-99457640D01*
X161629609Y-99389367D01*
X161643163Y-99341224D01*
X161649225Y-99329507D01*
X161651135Y-99327598D01*
X161732869Y-99189393D01*
X161747135Y-99140286D01*
X161752701Y-99129531D01*
X161768813Y-99112683D01*
X161781360Y-99093037D01*
X161792509Y-99087906D01*
X161800992Y-99079037D01*
X161823654Y-99073575D01*
X161844832Y-99063830D01*
X161856985Y-99065541D01*
X161868917Y-99062666D01*
X161890934Y-99070323D01*
G37*
G04 #@! TD.AperFunction*
G04 #@! TA.AperFunction,Conductor*
G36*
X164069703Y-101418472D02*
G01*
X164076181Y-101424504D01*
X166149181Y-103497504D01*
X166182666Y-103558827D01*
X166185500Y-103585185D01*
X166185500Y-105864814D01*
X166165815Y-105931853D01*
X166149181Y-105952495D01*
X165602495Y-106499181D01*
X165541172Y-106532666D01*
X165514814Y-106535500D01*
X165138011Y-106535500D01*
X165070972Y-106515815D01*
X165025217Y-106463011D01*
X165015273Y-106393853D01*
X165020305Y-106372496D01*
X165021832Y-106367889D01*
X165054999Y-106267797D01*
X165065500Y-106165009D01*
X165065499Y-104834992D01*
X165054999Y-104732203D01*
X164999814Y-104565666D01*
X164907712Y-104416344D01*
X164783656Y-104292288D01*
X164634334Y-104200186D01*
X164467797Y-104145001D01*
X164467795Y-104145000D01*
X164365016Y-104134500D01*
X164365009Y-104134500D01*
X163988500Y-104134500D01*
X163921461Y-104114815D01*
X163875706Y-104062011D01*
X163864500Y-104010500D01*
X163864500Y-101512185D01*
X163884185Y-101445146D01*
X163936989Y-101399391D01*
X164006147Y-101389447D01*
X164069703Y-101418472D01*
G37*
G04 #@! TD.AperFunction*
G04 #@! TA.AperFunction,Conductor*
G36*
X167008059Y-93801561D02*
G01*
X167100152Y-93813685D01*
X167131421Y-93822063D01*
X167209668Y-93854474D01*
X167237699Y-93870659D01*
X167304892Y-93922219D01*
X167327780Y-93945107D01*
X167379340Y-94012300D01*
X167395526Y-94040334D01*
X167427936Y-94118579D01*
X167436314Y-94149846D01*
X167448439Y-94241939D01*
X167449500Y-94258125D01*
X167449500Y-102919796D01*
X167429815Y-102986835D01*
X167377011Y-103032590D01*
X167307853Y-103042534D01*
X167244297Y-103013509D01*
X167232736Y-103002082D01*
X167224398Y-102992682D01*
X167201712Y-102953389D01*
X167096611Y-102848288D01*
X165926103Y-101677780D01*
X164750819Y-100502495D01*
X164717334Y-100441172D01*
X164714500Y-100414814D01*
X164714500Y-98125684D01*
X164714500Y-98125682D01*
X164676030Y-97982111D01*
X164601712Y-97853389D01*
X164496611Y-97748288D01*
X163896611Y-97148287D01*
X163896609Y-97148286D01*
X163896604Y-97148282D01*
X163767895Y-97073973D01*
X163767890Y-97073970D01*
X163731996Y-97064352D01*
X163624318Y-97035500D01*
X163624315Y-97035500D01*
X163205587Y-97035500D01*
X163138548Y-97015815D01*
X163092793Y-96963011D01*
X163082849Y-96893853D01*
X163095102Y-96855205D01*
X163158882Y-96730029D01*
X163158882Y-96730028D01*
X163158884Y-96730025D01*
X163219709Y-96542826D01*
X163224365Y-96513428D01*
X163250500Y-96348422D01*
X163250500Y-96151576D01*
X163248520Y-96139075D01*
X163257475Y-96069782D01*
X163302471Y-96016330D01*
X163369223Y-95995691D01*
X163436536Y-96014416D01*
X163458670Y-96031993D01*
X164092216Y-96665539D01*
X164965679Y-97539002D01*
X164999164Y-97600325D01*
X164999568Y-97645342D01*
X165000097Y-97645395D01*
X164999613Y-97650309D01*
X164999618Y-97650859D01*
X164999500Y-97651447D01*
X164999500Y-97651459D01*
X164999500Y-97848541D01*
X164999500Y-97848543D01*
X164999499Y-97848543D01*
X165037947Y-98041828D01*
X165037948Y-98041831D01*
X165037949Y-98041835D01*
X165078982Y-98140900D01*
X165080318Y-98144124D01*
X165087787Y-98213593D01*
X165065026Y-98265884D01*
X165056203Y-98277670D01*
X165056202Y-98277671D01*
X165005908Y-98412517D01*
X165003618Y-98433823D01*
X164999501Y-98472123D01*
X164999500Y-98472135D01*
X164999500Y-99567870D01*
X164999501Y-99567876D01*
X165005908Y-99627483D01*
X165056202Y-99762328D01*
X165056206Y-99762335D01*
X165142452Y-99877544D01*
X165142455Y-99877547D01*
X165257664Y-99963793D01*
X165257671Y-99963797D01*
X165392517Y-100014091D01*
X165392516Y-100014091D01*
X165399444Y-100014835D01*
X165452127Y-100020500D01*
X166547872Y-100020499D01*
X166607483Y-100014091D01*
X166742331Y-99963796D01*
X166857546Y-99877546D01*
X166943796Y-99762331D01*
X166994091Y-99627483D01*
X167000500Y-99567873D01*
X167000499Y-98472128D01*
X166994091Y-98412517D01*
X166978972Y-98371982D01*
X166943797Y-98277671D01*
X166943795Y-98277668D01*
X166934976Y-98265887D01*
X166910558Y-98200423D01*
X166919679Y-98144128D01*
X166962051Y-98041835D01*
X166981644Y-97943334D01*
X167000500Y-97848543D01*
X167000500Y-97651456D01*
X166962052Y-97458170D01*
X166962051Y-97458169D01*
X166962051Y-97458165D01*
X166957096Y-97446203D01*
X166886635Y-97276092D01*
X166886633Y-97276088D01*
X166886632Y-97276086D01*
X166886628Y-97276080D01*
X166825029Y-97183891D01*
X166804151Y-97117214D01*
X166822635Y-97049834D01*
X166825029Y-97046109D01*
X166872942Y-96974402D01*
X166886632Y-96953914D01*
X166892395Y-96940002D01*
X166923274Y-96865451D01*
X166962051Y-96771835D01*
X166983195Y-96665539D01*
X167000500Y-96578543D01*
X167000500Y-96381456D01*
X166962052Y-96188170D01*
X166962051Y-96188169D01*
X166962051Y-96188165D01*
X166955986Y-96173523D01*
X166886635Y-96006092D01*
X166886628Y-96006079D01*
X166777139Y-95842218D01*
X166777136Y-95842214D01*
X166637785Y-95702863D01*
X166637781Y-95702860D01*
X166473920Y-95593371D01*
X166473907Y-95593364D01*
X166291839Y-95517950D01*
X166291829Y-95517947D01*
X166098543Y-95479500D01*
X166098541Y-95479500D01*
X165901459Y-95479500D01*
X165863339Y-95487082D01*
X165793748Y-95480853D01*
X165751469Y-95453145D01*
X164310505Y-94012181D01*
X164277020Y-93950858D01*
X164282004Y-93881166D01*
X164323876Y-93825233D01*
X164389340Y-93800816D01*
X164398186Y-93800500D01*
X166983592Y-93800500D01*
X166991874Y-93800500D01*
X167008059Y-93801561D01*
G37*
G04 #@! TD.AperFunction*
G04 #@! TA.AperFunction,Conductor*
G36*
X153938383Y-100922226D02*
G01*
X153989203Y-100938492D01*
X154132159Y-100954772D01*
X154132168Y-100954771D01*
X154132171Y-100954772D01*
X154525000Y-100943217D01*
X154525000Y-102100197D01*
X153829245Y-101694340D01*
X153781256Y-101643557D01*
X153773063Y-101623222D01*
X153771659Y-101618596D01*
X153771658Y-101618588D01*
X153751210Y-101569221D01*
X153715087Y-101482012D01*
X153715080Y-101481999D01*
X153632951Y-101359085D01*
X153632312Y-101358306D01*
X153632104Y-101357818D01*
X153629567Y-101354020D01*
X153630287Y-101353538D01*
X153605000Y-101293996D01*
X153616791Y-101225129D01*
X153640482Y-101191963D01*
X153705581Y-101126865D01*
X153789244Y-100985398D01*
X153789244Y-100985397D01*
X153793215Y-100978683D01*
X153795828Y-100980228D01*
X153831415Y-100937411D01*
X153898035Y-100916351D01*
X153938383Y-100922226D01*
G37*
G04 #@! TD.AperFunction*
G04 #@! TA.AperFunction,Conductor*
G36*
X152801054Y-98420247D02*
G01*
X152846809Y-98473051D01*
X152853749Y-98492317D01*
X152876734Y-98577673D01*
X152971907Y-98837814D01*
X152988401Y-98882896D01*
X152992949Y-98952617D01*
X152959080Y-99013729D01*
X152897548Y-99046829D01*
X152871950Y-99049500D01*
X152821798Y-99049500D01*
X152784932Y-99052401D01*
X152784926Y-99052402D01*
X152627106Y-99098254D01*
X152627103Y-99098255D01*
X152485637Y-99181917D01*
X152485629Y-99181923D01*
X152369423Y-99298129D01*
X152369417Y-99298137D01*
X152368731Y-99299298D01*
X152367956Y-99300021D01*
X152366823Y-99301481D01*
X152366315Y-99303214D01*
X152341591Y-99324637D01*
X152317661Y-99346980D01*
X152315313Y-99347406D01*
X152313511Y-99348969D01*
X152281114Y-99353627D01*
X152248919Y-99359483D01*
X152246714Y-99358573D01*
X152244353Y-99358913D01*
X152214576Y-99345314D01*
X152184330Y-99332836D01*
X152182967Y-99330879D01*
X152180797Y-99329888D01*
X152163100Y-99302352D01*
X152144401Y-99275500D01*
X152143911Y-99272492D01*
X152143023Y-99271110D01*
X152138000Y-99236175D01*
X152138000Y-99022151D01*
X152147439Y-98974697D01*
X152153298Y-98960552D01*
X152161051Y-98941836D01*
X152187267Y-98810040D01*
X152195422Y-98769040D01*
X152199500Y-98748542D01*
X152199500Y-98593546D01*
X152208144Y-98564105D01*
X152214668Y-98534119D01*
X152218422Y-98529103D01*
X152219185Y-98526507D01*
X152235819Y-98505865D01*
X152304803Y-98436881D01*
X152366126Y-98403396D01*
X152392484Y-98400562D01*
X152734015Y-98400562D01*
X152801054Y-98420247D01*
G37*
G04 #@! TD.AperFunction*
G04 #@! TA.AperFunction,Conductor*
G36*
X157315514Y-97052689D02*
G01*
X157315517Y-97052691D01*
X157375127Y-97059100D01*
X157716900Y-97059099D01*
X157783939Y-97078783D01*
X157829694Y-97131587D01*
X157840900Y-97183099D01*
X157840900Y-97524869D01*
X157840901Y-97524879D01*
X157847552Y-97586751D01*
X157847552Y-97613257D01*
X157847309Y-97615516D01*
X157847309Y-97615517D01*
X157840900Y-97675127D01*
X157840900Y-97675129D01*
X157840900Y-97675133D01*
X157840900Y-98016900D01*
X157821215Y-98083939D01*
X157768411Y-98129694D01*
X157716900Y-98140900D01*
X157375130Y-98140900D01*
X157375120Y-98140901D01*
X157313248Y-98147552D01*
X157286742Y-98147552D01*
X157284483Y-98147309D01*
X157224873Y-98140900D01*
X157224866Y-98140900D01*
X156891513Y-98140900D01*
X156865393Y-98133230D01*
X156838501Y-98128997D01*
X156832359Y-98123530D01*
X156824474Y-98121215D01*
X156806649Y-98100644D01*
X156786313Y-98082542D01*
X156781787Y-98071951D01*
X156778719Y-98068411D01*
X156772080Y-98050245D01*
X156771714Y-98048935D01*
X156767027Y-98030568D01*
X156765674Y-98027303D01*
X156763666Y-98020108D01*
X156763795Y-98010392D01*
X156759099Y-97986763D01*
X156759099Y-97675129D01*
X156759099Y-97675128D01*
X156752691Y-97615517D01*
X156752689Y-97615513D01*
X156752447Y-97613255D01*
X156752447Y-97586745D01*
X156752689Y-97584486D01*
X156752691Y-97584483D01*
X156759100Y-97524873D01*
X156759099Y-97183098D01*
X156778783Y-97116060D01*
X156831587Y-97070305D01*
X156883094Y-97059099D01*
X157224872Y-97059099D01*
X157284483Y-97052691D01*
X157284486Y-97052689D01*
X157286744Y-97052447D01*
X157313254Y-97052447D01*
X157315514Y-97052689D01*
G37*
G04 #@! TD.AperFunction*
G04 #@! TA.AperFunction,Conductor*
G36*
X156667971Y-102882029D02*
G01*
X156675000Y-102899000D01*
X156675000Y-103000000D01*
X156717957Y-103113930D01*
X156719500Y-103122395D01*
X156719500Y-103370706D01*
X156722709Y-103406881D01*
X156722712Y-103406899D01*
X156724197Y-103415206D01*
X156733727Y-103450252D01*
X156733730Y-103450262D01*
X157168012Y-104625380D01*
X157169500Y-104633700D01*
X157169500Y-106526000D01*
X157162471Y-106542971D01*
X157145500Y-106550000D01*
X155849000Y-106550000D01*
X155832029Y-106542971D01*
X155825000Y-106526000D01*
X155825000Y-103809278D01*
X155831240Y-103793135D01*
X156325000Y-103250000D01*
X156420249Y-102892815D01*
X156431414Y-102878230D01*
X156443439Y-102875000D01*
X156651000Y-102875000D01*
X156667971Y-102882029D01*
G37*
G04 #@! TD.AperFunction*
G04 #@! TA.AperFunction,Conductor*
G36*
X157167971Y-102882029D02*
G01*
X157175000Y-102899000D01*
X157175000Y-103250000D01*
X158762261Y-104093232D01*
X158773949Y-104107401D01*
X158775000Y-104114426D01*
X158775000Y-106526000D01*
X158767971Y-106542971D01*
X158751000Y-106550000D01*
X157399000Y-106550000D01*
X157382029Y-106542971D01*
X157375000Y-106526000D01*
X157375000Y-104592650D01*
X157195669Y-104107401D01*
X156926488Y-103379026D01*
X156925000Y-103370706D01*
X156925000Y-102899000D01*
X156932029Y-102882029D01*
X156949000Y-102875000D01*
X157151000Y-102875000D01*
X157167971Y-102882029D01*
G37*
G04 #@! TD.AperFunction*
G04 #@! TA.AperFunction,Conductor*
G36*
X149450827Y-99557029D02*
G01*
X149456084Y-99564951D01*
X150325000Y-101700000D01*
X151476000Y-101700000D01*
X151492971Y-101707029D01*
X151500000Y-101724000D01*
X151500000Y-103000000D01*
X149150000Y-103000000D01*
X149150000Y-103895535D01*
X149143807Y-103892971D01*
X149142840Y-103891945D01*
X147356062Y-101881819D01*
X147350000Y-101865874D01*
X147350000Y-99574000D01*
X147357029Y-99557029D01*
X147374000Y-99550000D01*
X149433856Y-99550000D01*
X149450827Y-99557029D01*
G37*
G04 #@! TD.AperFunction*
G04 #@! TA.AperFunction,Conductor*
G36*
X153355604Y-102003269D02*
G01*
X154550000Y-102700000D01*
X155124996Y-102700000D01*
X155125000Y-102700000D01*
X155922132Y-102500717D01*
X155927953Y-102500000D01*
X156151000Y-102500000D01*
X156167971Y-102507029D01*
X156175000Y-102524000D01*
X156175000Y-102989916D01*
X156167971Y-103006887D01*
X156167798Y-103007057D01*
X154925001Y-104224997D01*
X154925000Y-104225000D01*
X154925000Y-104050000D01*
X153350000Y-103000000D01*
X152750000Y-103000000D01*
X152750000Y-102024000D01*
X152757029Y-102007029D01*
X152774000Y-102000000D01*
X153343511Y-102000000D01*
X153355604Y-102003269D01*
G37*
G04 #@! TD.AperFunction*
G04 #@! TA.AperFunction,Conductor*
G36*
X155644141Y-101123544D02*
G01*
X155714884Y-101194287D01*
X155812936Y-101250898D01*
X155843419Y-101259066D01*
X155850534Y-101262289D01*
X155873020Y-101277314D01*
X155884882Y-101285240D01*
X155892098Y-101286675D01*
X155904305Y-101289103D01*
X156000000Y-101350000D01*
X157675000Y-101350000D01*
X157675000Y-103000000D01*
X157425000Y-103000000D01*
X157350000Y-102250000D01*
X156000000Y-102250000D01*
X155350000Y-102400000D01*
X154525000Y-102400000D01*
X154525000Y-100825000D01*
X155175000Y-100825000D01*
X155644141Y-101123544D01*
G37*
G04 #@! TD.AperFunction*
G04 #@! TA.AperFunction,Conductor*
G36*
X154806081Y-97407029D02*
G01*
X154807164Y-97408187D01*
X155290162Y-97960186D01*
X155296100Y-97975988D01*
X155296100Y-97996752D01*
X155307732Y-98055229D01*
X155307732Y-98055230D01*
X155307733Y-98055231D01*
X155352048Y-98121552D01*
X155418369Y-98165867D01*
X155442644Y-98170695D01*
X155473035Y-98176741D01*
X155486414Y-98184475D01*
X155499999Y-98199999D01*
X155499999Y-98200000D01*
X155500000Y-98200000D01*
X156276000Y-98200000D01*
X156292971Y-98207029D01*
X156300000Y-98224000D01*
X156300000Y-98469618D01*
X156292971Y-98486589D01*
X156289334Y-98489573D01*
X156278450Y-98496845D01*
X156278445Y-98496850D01*
X156234131Y-98563170D01*
X156222499Y-98621647D01*
X156222499Y-98791397D01*
X156221709Y-98797505D01*
X155804566Y-100382645D01*
X155793449Y-100397268D01*
X155782062Y-100400527D01*
X154117298Y-100449491D01*
X154100128Y-100442963D01*
X154094054Y-100433749D01*
X153351461Y-98403993D01*
X153350000Y-98395747D01*
X153350000Y-97424000D01*
X153357029Y-97407029D01*
X153374000Y-97400000D01*
X154789110Y-97400000D01*
X154806081Y-97407029D01*
G37*
G04 #@! TD.AperFunction*
G04 #@! TA.AperFunction,Conductor*
G36*
X151579971Y-103007029D02*
G01*
X151587000Y-103024000D01*
X151587000Y-103033263D01*
X151596925Y-103101390D01*
X151596926Y-103101391D01*
X151634561Y-103178374D01*
X151637000Y-103188915D01*
X151637000Y-103256809D01*
X151649913Y-103305000D01*
X151667701Y-103371387D01*
X151727011Y-103474114D01*
X152148432Y-103895535D01*
X152302471Y-104049574D01*
X152309500Y-104066544D01*
X152309500Y-104109895D01*
X152316028Y-104159487D01*
X152316028Y-104159489D01*
X152366774Y-104268313D01*
X152366775Y-104268314D01*
X152366776Y-104268316D01*
X152451684Y-104353224D01*
X152560513Y-104403972D01*
X152610099Y-104410500D01*
X152969900Y-104410499D01*
X153019487Y-104403972D01*
X153128316Y-104353224D01*
X153213224Y-104268316D01*
X153263972Y-104159487D01*
X153270500Y-104109901D01*
X153270499Y-103690100D01*
X153263972Y-103640513D01*
X153213224Y-103531684D01*
X153128316Y-103446776D01*
X153128314Y-103446775D01*
X153128313Y-103446774D01*
X153019488Y-103396028D01*
X153009569Y-103394722D01*
X152969901Y-103389500D01*
X152969897Y-103389500D01*
X152926545Y-103389500D01*
X152909574Y-103382471D01*
X152592999Y-103065896D01*
X152592601Y-103064935D01*
X152591678Y-103064462D01*
X152590032Y-103058734D01*
X152585970Y-103048925D01*
X152586049Y-103046977D01*
X152586109Y-103046233D01*
X152588000Y-103033260D01*
X152588000Y-103023021D01*
X152588079Y-103022052D01*
X152591858Y-103014684D01*
X152595029Y-103007029D01*
X152595989Y-103006631D01*
X152596463Y-103005708D01*
X152604345Y-103003170D01*
X152612000Y-103000000D01*
X152749999Y-103000000D01*
X153350000Y-103000000D01*
X154925000Y-104050000D01*
X154925000Y-104225000D01*
X154925000Y-105101000D01*
X154917971Y-105117971D01*
X154901000Y-105125000D01*
X151484942Y-105125000D01*
X151467971Y-105117971D01*
X151451000Y-105101000D01*
X150250000Y-103900000D01*
X150249999Y-103900000D01*
X149160778Y-103900000D01*
X149150000Y-103895535D01*
X149150000Y-103000000D01*
X151500001Y-103000000D01*
X151563000Y-103000000D01*
X151579971Y-103007029D01*
G37*
G04 #@! TD.AperFunction*
M02*
