M48
; DRILL file {KiCad 9.0.0} date 2025-03-03T20:11:56-0500
; FORMAT={-:-/ absolute / metric / decimal}
; #@! TF.CreationDate,2025-03-03T20:11:56-05:00
; #@! TF.GenerationSoftware,Kicad,Pcbnew,9.0.0
; #@! TF.FileFunction,Plated,1,2,PTH
FMAT,2
METRIC
; #@! TA.AperFunction,Plated,PTH,ViaDrill
T1C0.255
; #@! TA.AperFunction,Plated,PTH,ComponentDrill
T2C0.650
; #@! TA.AperFunction,Plated,PTH,ComponentDrill
T3C0.730
%
G90
G05
T1
X151.125Y-102.025
X151.125Y-102.95
X151.137Y-102.487
X152.088Y-102.487
X152.088Y-102.875
X152.1Y-102.1
X152.18Y-98.65
X152.79Y-103.9
X153.037Y-102.487
X153.05Y-102.025
X153.05Y-102.95
X153.8Y-96.0
X154.35Y-96.0
X154.85Y-101.11
X154.85Y-102.12
X155.979Y-100.85
X156.3Y-101.8
X156.8Y-101.8
X156.95Y-97.3
X156.95Y-97.9
X157.3Y-101.8
X157.55Y-99.65
X157.65Y-97.3
X157.65Y-97.9
X158.107Y-96.0
X158.7Y-96.793
X158.85Y-100.24
X159.99Y-98.75
X160.99Y-98.75
X161.53Y-103.5
T2
X160.95Y-100.45
X160.95Y-101.72
X166.0Y-95.21
X166.0Y-96.48
X166.0Y-97.75
X166.0Y-99.02
T3
X148.4Y-95.65
X148.4Y-97.15
X148.4Y-98.65
X148.4Y-100.15
X148.75Y-105.5
X150.25Y-105.5
X156.55Y-105.5
X158.05Y-105.5
X164.05Y-105.5
X165.55Y-105.5
M30
