G04 #@! TF.GenerationSoftware,KiCad,Pcbnew,9.0.0*
G04 #@! TF.CreationDate,2025-03-03T20:11:52-05:00*
G04 #@! TF.ProjectId,pcb,7063622e-6b69-4636-9164-5f7063625858,rev?*
G04 #@! TF.SameCoordinates,Original*
G04 #@! TF.FileFunction,Legend,Top*
G04 #@! TF.FilePolarity,Positive*
%FSLAX46Y46*%
G04 Gerber Fmt 4.6, Leading zero omitted, Abs format (unit mm)*
G04 Created by KiCad (PCBNEW 9.0.0) date 2025-03-03 20:11:52*
%MOMM*%
%LPD*%
G01*
G04 APERTURE LIST*
G04 Aperture macros list*
%AMRoundRect*
0 Rectangle with rounded corners*
0 $1 Rounding radius*
0 $2 $3 $4 $5 $6 $7 $8 $9 X,Y pos of 4 corners*
0 Add a 4 corners polygon primitive as box body*
4,1,4,$2,$3,$4,$5,$6,$7,$8,$9,$2,$3,0*
0 Add four circle primitives for the rounded corners*
1,1,$1+$1,$2,$3*
1,1,$1+$1,$4,$5*
1,1,$1+$1,$6,$7*
1,1,$1+$1,$8,$9*
0 Add four rect primitives between the rounded corners*
20,1,$1+$1,$2,$3,$4,$5,0*
20,1,$1+$1,$4,$5,$6,$7,0*
20,1,$1+$1,$6,$7,$8,$9,0*
20,1,$1+$1,$8,$9,$2,$3,0*%
G04 Aperture macros list end*
%ADD10C,0.125000*%
%ADD11C,0.150000*%
%ADD12C,0.120000*%
%ADD13C,0.152400*%
%ADD14C,0.000000*%
%ADD15RoundRect,0.250000X-0.265000X-0.615000X0.265000X-0.615000X0.265000X0.615000X-0.265000X0.615000X0*%
%ADD16O,1.030000X1.730000*%
%ADD17R,1.000000X1.000000*%
%ADD18O,1.000000X1.000000*%
%ADD19RoundRect,0.250000X-0.615000X0.265000X-0.615000X-0.265000X0.615000X-0.265000X0.615000X0.265000X0*%
%ADD20O,1.730000X1.030000*%
%ADD21RoundRect,0.140000X0.170000X-0.140000X0.170000X0.140000X-0.170000X0.140000X-0.170000X-0.140000X0*%
%ADD22RoundRect,0.140000X0.140000X0.170000X-0.140000X0.170000X-0.140000X-0.170000X0.140000X-0.170000X0*%
%ADD23RoundRect,0.140000X-0.140000X-0.170000X0.140000X-0.170000X0.140000X0.170000X-0.140000X0.170000X0*%
%ADD24RoundRect,0.250000X-0.475000X0.250000X-0.475000X-0.250000X0.475000X-0.250000X0.475000X0.250000X0*%
%ADD25R,0.254000X0.762000*%
%ADD26R,0.762000X0.254000*%
%ADD27R,1.498600X1.498600*%
%ADD28RoundRect,0.062500X0.062500X-0.187500X0.062500X0.187500X-0.062500X0.187500X-0.062500X-0.187500X0*%
%ADD29R,1.600000X0.900000*%
%ADD30RoundRect,0.150000X0.150000X-0.512500X0.150000X0.512500X-0.150000X0.512500X-0.150000X-0.512500X0*%
%ADD31RoundRect,0.135000X0.185000X-0.135000X0.185000X0.135000X-0.185000X0.135000X-0.185000X-0.135000X0*%
%ADD32RoundRect,0.135000X-0.135000X-0.185000X0.135000X-0.185000X0.135000X0.185000X-0.135000X0.185000X0*%
G04 APERTURE END LIST*
D10*
X163474906Y-95006119D02*
X163427287Y-94982309D01*
X163427287Y-94982309D02*
X163355858Y-94982309D01*
X163355858Y-94982309D02*
X163284430Y-95006119D01*
X163284430Y-95006119D02*
X163236811Y-95053738D01*
X163236811Y-95053738D02*
X163213001Y-95101357D01*
X163213001Y-95101357D02*
X163189192Y-95196595D01*
X163189192Y-95196595D02*
X163189192Y-95268023D01*
X163189192Y-95268023D02*
X163213001Y-95363261D01*
X163213001Y-95363261D02*
X163236811Y-95410880D01*
X163236811Y-95410880D02*
X163284430Y-95458500D01*
X163284430Y-95458500D02*
X163355858Y-95482309D01*
X163355858Y-95482309D02*
X163403477Y-95482309D01*
X163403477Y-95482309D02*
X163474906Y-95458500D01*
X163474906Y-95458500D02*
X163498715Y-95434690D01*
X163498715Y-95434690D02*
X163498715Y-95268023D01*
X163498715Y-95268023D02*
X163403477Y-95268023D01*
X163713001Y-95482309D02*
X163713001Y-94982309D01*
X163713001Y-94982309D02*
X163998715Y-95482309D01*
X163998715Y-95482309D02*
X163998715Y-94982309D01*
X164236811Y-95482309D02*
X164236811Y-94982309D01*
X164236811Y-94982309D02*
X164355859Y-94982309D01*
X164355859Y-94982309D02*
X164427287Y-95006119D01*
X164427287Y-95006119D02*
X164474906Y-95053738D01*
X164474906Y-95053738D02*
X164498716Y-95101357D01*
X164498716Y-95101357D02*
X164522525Y-95196595D01*
X164522525Y-95196595D02*
X164522525Y-95268023D01*
X164522525Y-95268023D02*
X164498716Y-95363261D01*
X164498716Y-95363261D02*
X164474906Y-95410880D01*
X164474906Y-95410880D02*
X164427287Y-95458500D01*
X164427287Y-95458500D02*
X164355859Y-95482309D01*
X164355859Y-95482309D02*
X164236811Y-95482309D01*
X163427288Y-96757309D02*
X163427288Y-96257309D01*
X163427288Y-96257309D02*
X163546336Y-96257309D01*
X163546336Y-96257309D02*
X163617764Y-96281119D01*
X163617764Y-96281119D02*
X163665383Y-96328738D01*
X163665383Y-96328738D02*
X163689193Y-96376357D01*
X163689193Y-96376357D02*
X163713002Y-96471595D01*
X163713002Y-96471595D02*
X163713002Y-96543023D01*
X163713002Y-96543023D02*
X163689193Y-96638261D01*
X163689193Y-96638261D02*
X163665383Y-96685880D01*
X163665383Y-96685880D02*
X163617764Y-96733500D01*
X163617764Y-96733500D02*
X163546336Y-96757309D01*
X163546336Y-96757309D02*
X163427288Y-96757309D01*
X163903479Y-96614452D02*
X164141574Y-96614452D01*
X163855860Y-96757309D02*
X164022526Y-96257309D01*
X164022526Y-96257309D02*
X164189193Y-96757309D01*
X164284431Y-96257309D02*
X164570145Y-96257309D01*
X164427288Y-96757309D02*
X164427288Y-96257309D01*
X163617763Y-97984690D02*
X163593954Y-98008500D01*
X163593954Y-98008500D02*
X163522525Y-98032309D01*
X163522525Y-98032309D02*
X163474906Y-98032309D01*
X163474906Y-98032309D02*
X163403478Y-98008500D01*
X163403478Y-98008500D02*
X163355859Y-97960880D01*
X163355859Y-97960880D02*
X163332049Y-97913261D01*
X163332049Y-97913261D02*
X163308240Y-97818023D01*
X163308240Y-97818023D02*
X163308240Y-97746595D01*
X163308240Y-97746595D02*
X163332049Y-97651357D01*
X163332049Y-97651357D02*
X163355859Y-97603738D01*
X163355859Y-97603738D02*
X163403478Y-97556119D01*
X163403478Y-97556119D02*
X163474906Y-97532309D01*
X163474906Y-97532309D02*
X163522525Y-97532309D01*
X163522525Y-97532309D02*
X163593954Y-97556119D01*
X163593954Y-97556119D02*
X163617763Y-97579928D01*
X164070144Y-98032309D02*
X163832049Y-98032309D01*
X163832049Y-98032309D02*
X163832049Y-97532309D01*
X164236811Y-98032309D02*
X164236811Y-97532309D01*
X164522525Y-98032309D02*
X164308240Y-97746595D01*
X164522525Y-97532309D02*
X164236811Y-97818023D01*
X162785620Y-99307309D02*
X162785620Y-98807309D01*
X162785620Y-98807309D02*
X162952287Y-99164452D01*
X162952287Y-99164452D02*
X163118953Y-98807309D01*
X163118953Y-98807309D02*
X163118953Y-99307309D01*
X163642763Y-99259690D02*
X163618954Y-99283500D01*
X163618954Y-99283500D02*
X163547525Y-99307309D01*
X163547525Y-99307309D02*
X163499906Y-99307309D01*
X163499906Y-99307309D02*
X163428478Y-99283500D01*
X163428478Y-99283500D02*
X163380859Y-99235880D01*
X163380859Y-99235880D02*
X163357049Y-99188261D01*
X163357049Y-99188261D02*
X163333240Y-99093023D01*
X163333240Y-99093023D02*
X163333240Y-99021595D01*
X163333240Y-99021595D02*
X163357049Y-98926357D01*
X163357049Y-98926357D02*
X163380859Y-98878738D01*
X163380859Y-98878738D02*
X163428478Y-98831119D01*
X163428478Y-98831119D02*
X163499906Y-98807309D01*
X163499906Y-98807309D02*
X163547525Y-98807309D01*
X163547525Y-98807309D02*
X163618954Y-98831119D01*
X163618954Y-98831119D02*
X163642763Y-98854928D01*
X164095144Y-99307309D02*
X163857049Y-99307309D01*
X163857049Y-99307309D02*
X163857049Y-98807309D01*
X164547525Y-99307309D02*
X164380859Y-99069214D01*
X164261811Y-99307309D02*
X164261811Y-98807309D01*
X164261811Y-98807309D02*
X164452287Y-98807309D01*
X164452287Y-98807309D02*
X164499906Y-98831119D01*
X164499906Y-98831119D02*
X164523716Y-98854928D01*
X164523716Y-98854928D02*
X164547525Y-98902547D01*
X164547525Y-98902547D02*
X164547525Y-98973976D01*
X164547525Y-98973976D02*
X164523716Y-99021595D01*
X164523716Y-99021595D02*
X164499906Y-99045404D01*
X164499906Y-99045404D02*
X164452287Y-99069214D01*
X164452287Y-99069214D02*
X164261811Y-99069214D01*
D11*
X154443771Y-106599999D02*
X153843771Y-106599999D01*
X153843771Y-106599999D02*
X154272342Y-106399999D01*
X154272342Y-106399999D02*
X153843771Y-106199999D01*
X153843771Y-106199999D02*
X154443771Y-106199999D01*
X154443771Y-105828571D02*
X154415200Y-105885714D01*
X154415200Y-105885714D02*
X154386628Y-105914285D01*
X154386628Y-105914285D02*
X154329485Y-105942857D01*
X154329485Y-105942857D02*
X154158057Y-105942857D01*
X154158057Y-105942857D02*
X154100914Y-105914285D01*
X154100914Y-105914285D02*
X154072342Y-105885714D01*
X154072342Y-105885714D02*
X154043771Y-105828571D01*
X154043771Y-105828571D02*
X154043771Y-105742857D01*
X154043771Y-105742857D02*
X154072342Y-105685714D01*
X154072342Y-105685714D02*
X154100914Y-105657143D01*
X154100914Y-105657143D02*
X154158057Y-105628571D01*
X154158057Y-105628571D02*
X154329485Y-105628571D01*
X154329485Y-105628571D02*
X154386628Y-105657143D01*
X154386628Y-105657143D02*
X154415200Y-105685714D01*
X154415200Y-105685714D02*
X154443771Y-105742857D01*
X154443771Y-105742857D02*
X154443771Y-105828571D01*
X154043771Y-105457143D02*
X154043771Y-105228571D01*
X153843771Y-105371428D02*
X154358057Y-105371428D01*
X154358057Y-105371428D02*
X154415200Y-105342857D01*
X154415200Y-105342857D02*
X154443771Y-105285714D01*
X154443771Y-105285714D02*
X154443771Y-105228571D01*
X154443771Y-104942857D02*
X154415200Y-105000000D01*
X154415200Y-105000000D02*
X154386628Y-105028571D01*
X154386628Y-105028571D02*
X154329485Y-105057143D01*
X154329485Y-105057143D02*
X154158057Y-105057143D01*
X154158057Y-105057143D02*
X154100914Y-105028571D01*
X154100914Y-105028571D02*
X154072342Y-105000000D01*
X154072342Y-105000000D02*
X154043771Y-104942857D01*
X154043771Y-104942857D02*
X154043771Y-104857143D01*
X154043771Y-104857143D02*
X154072342Y-104800000D01*
X154072342Y-104800000D02*
X154100914Y-104771429D01*
X154100914Y-104771429D02*
X154158057Y-104742857D01*
X154158057Y-104742857D02*
X154329485Y-104742857D01*
X154329485Y-104742857D02*
X154386628Y-104771429D01*
X154386628Y-104771429D02*
X154415200Y-104800000D01*
X154415200Y-104800000D02*
X154443771Y-104857143D01*
X154443771Y-104857143D02*
X154443771Y-104942857D01*
X154443771Y-104485714D02*
X154043771Y-104485714D01*
X154158057Y-104485714D02*
X154100914Y-104457143D01*
X154100914Y-104457143D02*
X154072342Y-104428572D01*
X154072342Y-104428572D02*
X154043771Y-104371429D01*
X154043771Y-104371429D02*
X154043771Y-104314286D01*
X161943771Y-106171427D02*
X161943771Y-106457141D01*
X161943771Y-106457141D02*
X161343771Y-106457141D01*
X161943771Y-105971427D02*
X161543771Y-105971427D01*
X161343771Y-105971427D02*
X161372342Y-105999999D01*
X161372342Y-105999999D02*
X161400914Y-105971427D01*
X161400914Y-105971427D02*
X161372342Y-105942856D01*
X161372342Y-105942856D02*
X161343771Y-105971427D01*
X161343771Y-105971427D02*
X161400914Y-105971427D01*
X161943771Y-105685713D02*
X161543771Y-105685713D01*
X161600914Y-105685713D02*
X161572342Y-105657142D01*
X161572342Y-105657142D02*
X161543771Y-105599999D01*
X161543771Y-105599999D02*
X161543771Y-105514285D01*
X161543771Y-105514285D02*
X161572342Y-105457142D01*
X161572342Y-105457142D02*
X161629485Y-105428571D01*
X161629485Y-105428571D02*
X161943771Y-105428571D01*
X161629485Y-105428571D02*
X161572342Y-105399999D01*
X161572342Y-105399999D02*
X161543771Y-105342856D01*
X161543771Y-105342856D02*
X161543771Y-105257142D01*
X161543771Y-105257142D02*
X161572342Y-105199999D01*
X161572342Y-105199999D02*
X161629485Y-105171428D01*
X161629485Y-105171428D02*
X161943771Y-105171428D01*
X161943771Y-104885713D02*
X161543771Y-104885713D01*
X161343771Y-104885713D02*
X161372342Y-104914285D01*
X161372342Y-104914285D02*
X161400914Y-104885713D01*
X161400914Y-104885713D02*
X161372342Y-104857142D01*
X161372342Y-104857142D02*
X161343771Y-104885713D01*
X161343771Y-104885713D02*
X161400914Y-104885713D01*
X161543771Y-104685714D02*
X161543771Y-104457142D01*
X161343771Y-104599999D02*
X161858057Y-104599999D01*
X161858057Y-104599999D02*
X161915200Y-104571428D01*
X161915200Y-104571428D02*
X161943771Y-104514285D01*
X161943771Y-104514285D02*
X161943771Y-104457142D01*
X146618771Y-106171427D02*
X146618771Y-106457141D01*
X146618771Y-106457141D02*
X146018771Y-106457141D01*
X146618771Y-105971427D02*
X146218771Y-105971427D01*
X146018771Y-105971427D02*
X146047342Y-105999999D01*
X146047342Y-105999999D02*
X146075914Y-105971427D01*
X146075914Y-105971427D02*
X146047342Y-105942856D01*
X146047342Y-105942856D02*
X146018771Y-105971427D01*
X146018771Y-105971427D02*
X146075914Y-105971427D01*
X146618771Y-105685713D02*
X146218771Y-105685713D01*
X146275914Y-105685713D02*
X146247342Y-105657142D01*
X146247342Y-105657142D02*
X146218771Y-105599999D01*
X146218771Y-105599999D02*
X146218771Y-105514285D01*
X146218771Y-105514285D02*
X146247342Y-105457142D01*
X146247342Y-105457142D02*
X146304485Y-105428571D01*
X146304485Y-105428571D02*
X146618771Y-105428571D01*
X146304485Y-105428571D02*
X146247342Y-105399999D01*
X146247342Y-105399999D02*
X146218771Y-105342856D01*
X146218771Y-105342856D02*
X146218771Y-105257142D01*
X146218771Y-105257142D02*
X146247342Y-105199999D01*
X146247342Y-105199999D02*
X146304485Y-105171428D01*
X146304485Y-105171428D02*
X146618771Y-105171428D01*
X146618771Y-104885713D02*
X146218771Y-104885713D01*
X146018771Y-104885713D02*
X146047342Y-104914285D01*
X146047342Y-104914285D02*
X146075914Y-104885713D01*
X146075914Y-104885713D02*
X146047342Y-104857142D01*
X146047342Y-104857142D02*
X146018771Y-104885713D01*
X146018771Y-104885713D02*
X146075914Y-104885713D01*
X146218771Y-104685714D02*
X146218771Y-104457142D01*
X146018771Y-104599999D02*
X146533057Y-104599999D01*
X146533057Y-104599999D02*
X146590200Y-104571428D01*
X146590200Y-104571428D02*
X146618771Y-104514285D01*
X146618771Y-104514285D02*
X146618771Y-104457142D01*
X150368771Y-96133458D02*
X150854485Y-96133458D01*
X150854485Y-96133458D02*
X150911628Y-96104887D01*
X150911628Y-96104887D02*
X150940200Y-96076316D01*
X150940200Y-96076316D02*
X150968771Y-96019173D01*
X150968771Y-96019173D02*
X150968771Y-95904887D01*
X150968771Y-95904887D02*
X150940200Y-95847744D01*
X150940200Y-95847744D02*
X150911628Y-95819173D01*
X150911628Y-95819173D02*
X150854485Y-95790601D01*
X150854485Y-95790601D02*
X150368771Y-95790601D01*
X150968771Y-95219173D02*
X150968771Y-95504887D01*
X150968771Y-95504887D02*
X150368771Y-95504887D01*
X150968771Y-95019173D02*
X150568771Y-95019173D01*
X150368771Y-95019173D02*
X150397342Y-95047745D01*
X150397342Y-95047745D02*
X150425914Y-95019173D01*
X150425914Y-95019173D02*
X150397342Y-94990602D01*
X150397342Y-94990602D02*
X150368771Y-95019173D01*
X150368771Y-95019173D02*
X150425914Y-95019173D01*
X150568771Y-94733459D02*
X150968771Y-94733459D01*
X150625914Y-94733459D02*
X150597342Y-94704888D01*
X150597342Y-94704888D02*
X150568771Y-94647745D01*
X150568771Y-94647745D02*
X150568771Y-94562031D01*
X150568771Y-94562031D02*
X150597342Y-94504888D01*
X150597342Y-94504888D02*
X150654485Y-94476317D01*
X150654485Y-94476317D02*
X150968771Y-94476317D01*
X150968771Y-94190602D02*
X150368771Y-94190602D01*
X150740200Y-94133460D02*
X150968771Y-93962031D01*
X150568771Y-93962031D02*
X150797342Y-94190602D01*
D10*
X163074809Y-101933333D02*
X162836714Y-102099999D01*
X163074809Y-102219047D02*
X162574809Y-102219047D01*
X162574809Y-102219047D02*
X162574809Y-102028571D01*
X162574809Y-102028571D02*
X162598619Y-101980952D01*
X162598619Y-101980952D02*
X162622428Y-101957142D01*
X162622428Y-101957142D02*
X162670047Y-101933333D01*
X162670047Y-101933333D02*
X162741476Y-101933333D01*
X162741476Y-101933333D02*
X162789095Y-101957142D01*
X162789095Y-101957142D02*
X162812904Y-101980952D01*
X162812904Y-101980952D02*
X162836714Y-102028571D01*
X162836714Y-102028571D02*
X162836714Y-102219047D01*
X162574809Y-101766666D02*
X162574809Y-101457142D01*
X162574809Y-101457142D02*
X162765285Y-101623809D01*
X162765285Y-101623809D02*
X162765285Y-101552380D01*
X162765285Y-101552380D02*
X162789095Y-101504761D01*
X162789095Y-101504761D02*
X162812904Y-101480952D01*
X162812904Y-101480952D02*
X162860523Y-101457142D01*
X162860523Y-101457142D02*
X162979571Y-101457142D01*
X162979571Y-101457142D02*
X163027190Y-101480952D01*
X163027190Y-101480952D02*
X163051000Y-101504761D01*
X163051000Y-101504761D02*
X163074809Y-101552380D01*
X163074809Y-101552380D02*
X163074809Y-101695237D01*
X163074809Y-101695237D02*
X163051000Y-101742856D01*
X163051000Y-101742856D02*
X163027190Y-101766666D01*
X154277190Y-102683333D02*
X154301000Y-102707142D01*
X154301000Y-102707142D02*
X154324809Y-102778571D01*
X154324809Y-102778571D02*
X154324809Y-102826190D01*
X154324809Y-102826190D02*
X154301000Y-102897618D01*
X154301000Y-102897618D02*
X154253380Y-102945237D01*
X154253380Y-102945237D02*
X154205761Y-102969047D01*
X154205761Y-102969047D02*
X154110523Y-102992856D01*
X154110523Y-102992856D02*
X154039095Y-102992856D01*
X154039095Y-102992856D02*
X153943857Y-102969047D01*
X153943857Y-102969047D02*
X153896238Y-102945237D01*
X153896238Y-102945237D02*
X153848619Y-102897618D01*
X153848619Y-102897618D02*
X153824809Y-102826190D01*
X153824809Y-102826190D02*
X153824809Y-102778571D01*
X153824809Y-102778571D02*
X153848619Y-102707142D01*
X153848619Y-102707142D02*
X153872428Y-102683333D01*
X153824809Y-102254761D02*
X153824809Y-102349999D01*
X153824809Y-102349999D02*
X153848619Y-102397618D01*
X153848619Y-102397618D02*
X153872428Y-102421428D01*
X153872428Y-102421428D02*
X153943857Y-102469047D01*
X153943857Y-102469047D02*
X154039095Y-102492856D01*
X154039095Y-102492856D02*
X154229571Y-102492856D01*
X154229571Y-102492856D02*
X154277190Y-102469047D01*
X154277190Y-102469047D02*
X154301000Y-102445237D01*
X154301000Y-102445237D02*
X154324809Y-102397618D01*
X154324809Y-102397618D02*
X154324809Y-102302380D01*
X154324809Y-102302380D02*
X154301000Y-102254761D01*
X154301000Y-102254761D02*
X154277190Y-102230952D01*
X154277190Y-102230952D02*
X154229571Y-102207142D01*
X154229571Y-102207142D02*
X154110523Y-102207142D01*
X154110523Y-102207142D02*
X154062904Y-102230952D01*
X154062904Y-102230952D02*
X154039095Y-102254761D01*
X154039095Y-102254761D02*
X154015285Y-102302380D01*
X154015285Y-102302380D02*
X154015285Y-102397618D01*
X154015285Y-102397618D02*
X154039095Y-102445237D01*
X154039095Y-102445237D02*
X154062904Y-102469047D01*
X154062904Y-102469047D02*
X154110523Y-102492856D01*
X152741666Y-104902190D02*
X152717857Y-104926000D01*
X152717857Y-104926000D02*
X152646428Y-104949809D01*
X152646428Y-104949809D02*
X152598809Y-104949809D01*
X152598809Y-104949809D02*
X152527381Y-104926000D01*
X152527381Y-104926000D02*
X152479762Y-104878380D01*
X152479762Y-104878380D02*
X152455952Y-104830761D01*
X152455952Y-104830761D02*
X152432143Y-104735523D01*
X152432143Y-104735523D02*
X152432143Y-104664095D01*
X152432143Y-104664095D02*
X152455952Y-104568857D01*
X152455952Y-104568857D02*
X152479762Y-104521238D01*
X152479762Y-104521238D02*
X152527381Y-104473619D01*
X152527381Y-104473619D02*
X152598809Y-104449809D01*
X152598809Y-104449809D02*
X152646428Y-104449809D01*
X152646428Y-104449809D02*
X152717857Y-104473619D01*
X152717857Y-104473619D02*
X152741666Y-104497428D01*
X152932143Y-104497428D02*
X152955952Y-104473619D01*
X152955952Y-104473619D02*
X153003571Y-104449809D01*
X153003571Y-104449809D02*
X153122619Y-104449809D01*
X153122619Y-104449809D02*
X153170238Y-104473619D01*
X153170238Y-104473619D02*
X153194047Y-104497428D01*
X153194047Y-104497428D02*
X153217857Y-104545047D01*
X153217857Y-104545047D02*
X153217857Y-104592666D01*
X153217857Y-104592666D02*
X153194047Y-104664095D01*
X153194047Y-104664095D02*
X152908333Y-104949809D01*
X152908333Y-104949809D02*
X153217857Y-104949809D01*
X151616666Y-97927190D02*
X151592857Y-97951000D01*
X151592857Y-97951000D02*
X151521428Y-97974809D01*
X151521428Y-97974809D02*
X151473809Y-97974809D01*
X151473809Y-97974809D02*
X151402381Y-97951000D01*
X151402381Y-97951000D02*
X151354762Y-97903380D01*
X151354762Y-97903380D02*
X151330952Y-97855761D01*
X151330952Y-97855761D02*
X151307143Y-97760523D01*
X151307143Y-97760523D02*
X151307143Y-97689095D01*
X151307143Y-97689095D02*
X151330952Y-97593857D01*
X151330952Y-97593857D02*
X151354762Y-97546238D01*
X151354762Y-97546238D02*
X151402381Y-97498619D01*
X151402381Y-97498619D02*
X151473809Y-97474809D01*
X151473809Y-97474809D02*
X151521428Y-97474809D01*
X151521428Y-97474809D02*
X151592857Y-97498619D01*
X151592857Y-97498619D02*
X151616666Y-97522428D01*
X152092857Y-97974809D02*
X151807143Y-97974809D01*
X151950000Y-97974809D02*
X151950000Y-97474809D01*
X151950000Y-97474809D02*
X151902381Y-97546238D01*
X151902381Y-97546238D02*
X151854762Y-97593857D01*
X151854762Y-97593857D02*
X151807143Y-97617666D01*
X152877190Y-97033333D02*
X152901000Y-97057142D01*
X152901000Y-97057142D02*
X152924809Y-97128571D01*
X152924809Y-97128571D02*
X152924809Y-97176190D01*
X152924809Y-97176190D02*
X152901000Y-97247618D01*
X152901000Y-97247618D02*
X152853380Y-97295237D01*
X152853380Y-97295237D02*
X152805761Y-97319047D01*
X152805761Y-97319047D02*
X152710523Y-97342856D01*
X152710523Y-97342856D02*
X152639095Y-97342856D01*
X152639095Y-97342856D02*
X152543857Y-97319047D01*
X152543857Y-97319047D02*
X152496238Y-97295237D01*
X152496238Y-97295237D02*
X152448619Y-97247618D01*
X152448619Y-97247618D02*
X152424809Y-97176190D01*
X152424809Y-97176190D02*
X152424809Y-97128571D01*
X152424809Y-97128571D02*
X152448619Y-97057142D01*
X152448619Y-97057142D02*
X152472428Y-97033333D01*
X152424809Y-96866666D02*
X152424809Y-96557142D01*
X152424809Y-96557142D02*
X152615285Y-96723809D01*
X152615285Y-96723809D02*
X152615285Y-96652380D01*
X152615285Y-96652380D02*
X152639095Y-96604761D01*
X152639095Y-96604761D02*
X152662904Y-96580952D01*
X152662904Y-96580952D02*
X152710523Y-96557142D01*
X152710523Y-96557142D02*
X152829571Y-96557142D01*
X152829571Y-96557142D02*
X152877190Y-96580952D01*
X152877190Y-96580952D02*
X152901000Y-96604761D01*
X152901000Y-96604761D02*
X152924809Y-96652380D01*
X152924809Y-96652380D02*
X152924809Y-96795237D01*
X152924809Y-96795237D02*
X152901000Y-96842856D01*
X152901000Y-96842856D02*
X152877190Y-96866666D01*
X154824809Y-99430952D02*
X155229571Y-99430952D01*
X155229571Y-99430952D02*
X155277190Y-99407142D01*
X155277190Y-99407142D02*
X155301000Y-99383333D01*
X155301000Y-99383333D02*
X155324809Y-99335714D01*
X155324809Y-99335714D02*
X155324809Y-99240476D01*
X155324809Y-99240476D02*
X155301000Y-99192857D01*
X155301000Y-99192857D02*
X155277190Y-99169047D01*
X155277190Y-99169047D02*
X155229571Y-99145238D01*
X155229571Y-99145238D02*
X154824809Y-99145238D01*
X155324809Y-98645237D02*
X155324809Y-98930951D01*
X155324809Y-98788094D02*
X154824809Y-98788094D01*
X154824809Y-98788094D02*
X154896238Y-98835713D01*
X154896238Y-98835713D02*
X154943857Y-98883332D01*
X154943857Y-98883332D02*
X154967666Y-98930951D01*
X154277190Y-100683333D02*
X154301000Y-100707142D01*
X154301000Y-100707142D02*
X154324809Y-100778571D01*
X154324809Y-100778571D02*
X154324809Y-100826190D01*
X154324809Y-100826190D02*
X154301000Y-100897618D01*
X154301000Y-100897618D02*
X154253380Y-100945237D01*
X154253380Y-100945237D02*
X154205761Y-100969047D01*
X154205761Y-100969047D02*
X154110523Y-100992856D01*
X154110523Y-100992856D02*
X154039095Y-100992856D01*
X154039095Y-100992856D02*
X153943857Y-100969047D01*
X153943857Y-100969047D02*
X153896238Y-100945237D01*
X153896238Y-100945237D02*
X153848619Y-100897618D01*
X153848619Y-100897618D02*
X153824809Y-100826190D01*
X153824809Y-100826190D02*
X153824809Y-100778571D01*
X153824809Y-100778571D02*
X153848619Y-100707142D01*
X153848619Y-100707142D02*
X153872428Y-100683333D01*
X153824809Y-100230952D02*
X153824809Y-100469047D01*
X153824809Y-100469047D02*
X154062904Y-100492856D01*
X154062904Y-100492856D02*
X154039095Y-100469047D01*
X154039095Y-100469047D02*
X154015285Y-100421428D01*
X154015285Y-100421428D02*
X154015285Y-100302380D01*
X154015285Y-100302380D02*
X154039095Y-100254761D01*
X154039095Y-100254761D02*
X154062904Y-100230952D01*
X154062904Y-100230952D02*
X154110523Y-100207142D01*
X154110523Y-100207142D02*
X154229571Y-100207142D01*
X154229571Y-100207142D02*
X154277190Y-100230952D01*
X154277190Y-100230952D02*
X154301000Y-100254761D01*
X154301000Y-100254761D02*
X154324809Y-100302380D01*
X154324809Y-100302380D02*
X154324809Y-100421428D01*
X154324809Y-100421428D02*
X154301000Y-100469047D01*
X154301000Y-100469047D02*
X154277190Y-100492856D01*
X158174809Y-103380952D02*
X158579571Y-103380952D01*
X158579571Y-103380952D02*
X158627190Y-103357142D01*
X158627190Y-103357142D02*
X158651000Y-103333333D01*
X158651000Y-103333333D02*
X158674809Y-103285714D01*
X158674809Y-103285714D02*
X158674809Y-103190476D01*
X158674809Y-103190476D02*
X158651000Y-103142857D01*
X158651000Y-103142857D02*
X158627190Y-103119047D01*
X158627190Y-103119047D02*
X158579571Y-103095238D01*
X158579571Y-103095238D02*
X158174809Y-103095238D01*
X158174809Y-102904761D02*
X158174809Y-102595237D01*
X158174809Y-102595237D02*
X158365285Y-102761904D01*
X158365285Y-102761904D02*
X158365285Y-102690475D01*
X158365285Y-102690475D02*
X158389095Y-102642856D01*
X158389095Y-102642856D02*
X158412904Y-102619047D01*
X158412904Y-102619047D02*
X158460523Y-102595237D01*
X158460523Y-102595237D02*
X158579571Y-102595237D01*
X158579571Y-102595237D02*
X158627190Y-102619047D01*
X158627190Y-102619047D02*
X158651000Y-102642856D01*
X158651000Y-102642856D02*
X158674809Y-102690475D01*
X158674809Y-102690475D02*
X158674809Y-102833332D01*
X158674809Y-102833332D02*
X158651000Y-102880951D01*
X158651000Y-102880951D02*
X158627190Y-102904761D01*
X149474809Y-103330952D02*
X149879571Y-103330952D01*
X149879571Y-103330952D02*
X149927190Y-103307142D01*
X149927190Y-103307142D02*
X149951000Y-103283333D01*
X149951000Y-103283333D02*
X149974809Y-103235714D01*
X149974809Y-103235714D02*
X149974809Y-103140476D01*
X149974809Y-103140476D02*
X149951000Y-103092857D01*
X149951000Y-103092857D02*
X149927190Y-103069047D01*
X149927190Y-103069047D02*
X149879571Y-103045238D01*
X149879571Y-103045238D02*
X149474809Y-103045238D01*
X149522428Y-102830951D02*
X149498619Y-102807142D01*
X149498619Y-102807142D02*
X149474809Y-102759523D01*
X149474809Y-102759523D02*
X149474809Y-102640475D01*
X149474809Y-102640475D02*
X149498619Y-102592856D01*
X149498619Y-102592856D02*
X149522428Y-102569047D01*
X149522428Y-102569047D02*
X149570047Y-102545237D01*
X149570047Y-102545237D02*
X149617666Y-102545237D01*
X149617666Y-102545237D02*
X149689095Y-102569047D01*
X149689095Y-102569047D02*
X149974809Y-102854761D01*
X149974809Y-102854761D02*
X149974809Y-102545237D01*
X160566666Y-104527190D02*
X160542857Y-104551000D01*
X160542857Y-104551000D02*
X160471428Y-104574809D01*
X160471428Y-104574809D02*
X160423809Y-104574809D01*
X160423809Y-104574809D02*
X160352381Y-104551000D01*
X160352381Y-104551000D02*
X160304762Y-104503380D01*
X160304762Y-104503380D02*
X160280952Y-104455761D01*
X160280952Y-104455761D02*
X160257143Y-104360523D01*
X160257143Y-104360523D02*
X160257143Y-104289095D01*
X160257143Y-104289095D02*
X160280952Y-104193857D01*
X160280952Y-104193857D02*
X160304762Y-104146238D01*
X160304762Y-104146238D02*
X160352381Y-104098619D01*
X160352381Y-104098619D02*
X160423809Y-104074809D01*
X160423809Y-104074809D02*
X160471428Y-104074809D01*
X160471428Y-104074809D02*
X160542857Y-104098619D01*
X160542857Y-104098619D02*
X160566666Y-104122428D01*
X160995238Y-104241476D02*
X160995238Y-104574809D01*
X160876190Y-104051000D02*
X160757143Y-104408142D01*
X160757143Y-104408142D02*
X161066666Y-104408142D01*
X158766666Y-102274809D02*
X158600000Y-102036714D01*
X158480952Y-102274809D02*
X158480952Y-101774809D01*
X158480952Y-101774809D02*
X158671428Y-101774809D01*
X158671428Y-101774809D02*
X158719047Y-101798619D01*
X158719047Y-101798619D02*
X158742857Y-101822428D01*
X158742857Y-101822428D02*
X158766666Y-101870047D01*
X158766666Y-101870047D02*
X158766666Y-101941476D01*
X158766666Y-101941476D02*
X158742857Y-101989095D01*
X158742857Y-101989095D02*
X158719047Y-102012904D01*
X158719047Y-102012904D02*
X158671428Y-102036714D01*
X158671428Y-102036714D02*
X158480952Y-102036714D01*
X159242857Y-102274809D02*
X158957143Y-102274809D01*
X159100000Y-102274809D02*
X159100000Y-101774809D01*
X159100000Y-101774809D02*
X159052381Y-101846238D01*
X159052381Y-101846238D02*
X159004762Y-101893857D01*
X159004762Y-101893857D02*
X158957143Y-101917666D01*
X161816666Y-98974809D02*
X161650000Y-98736714D01*
X161530952Y-98974809D02*
X161530952Y-98474809D01*
X161530952Y-98474809D02*
X161721428Y-98474809D01*
X161721428Y-98474809D02*
X161769047Y-98498619D01*
X161769047Y-98498619D02*
X161792857Y-98522428D01*
X161792857Y-98522428D02*
X161816666Y-98570047D01*
X161816666Y-98570047D02*
X161816666Y-98641476D01*
X161816666Y-98641476D02*
X161792857Y-98689095D01*
X161792857Y-98689095D02*
X161769047Y-98712904D01*
X161769047Y-98712904D02*
X161721428Y-98736714D01*
X161721428Y-98736714D02*
X161530952Y-98736714D01*
X162007143Y-98522428D02*
X162030952Y-98498619D01*
X162030952Y-98498619D02*
X162078571Y-98474809D01*
X162078571Y-98474809D02*
X162197619Y-98474809D01*
X162197619Y-98474809D02*
X162245238Y-98498619D01*
X162245238Y-98498619D02*
X162269047Y-98522428D01*
X162269047Y-98522428D02*
X162292857Y-98570047D01*
X162292857Y-98570047D02*
X162292857Y-98617666D01*
X162292857Y-98617666D02*
X162269047Y-98689095D01*
X162269047Y-98689095D02*
X161983333Y-98974809D01*
X161983333Y-98974809D02*
X162292857Y-98974809D01*
D12*
X154940000Y-104090000D02*
X154940000Y-107810000D01*
X154940000Y-107810000D02*
X159660000Y-107810000D01*
X159660000Y-107810000D02*
X159660000Y-104090000D01*
X159660000Y-104090000D02*
X154940000Y-104090000D01*
X156250000Y-104090000D02*
X156250000Y-103890000D01*
X156250000Y-103890000D02*
X155950000Y-103890000D01*
X155950000Y-103890000D02*
X155950000Y-104090000D01*
X156250000Y-103990000D02*
X155950000Y-103990000D01*
X155340000Y-104490000D02*
X155340000Y-107410000D01*
X155340000Y-107410000D02*
X159260000Y-107410000D01*
X159260000Y-107410000D02*
X159260000Y-104490000D01*
X159260000Y-104490000D02*
X155340000Y-104490000D01*
X154940000Y-105000000D02*
X155340000Y-105000000D01*
X154940000Y-106000000D02*
X155340000Y-106000000D01*
X159660000Y-105000000D02*
X159260000Y-105000000D01*
X159660000Y-106000000D02*
X159260000Y-106000000D01*
X157200000Y-107410000D02*
X157200000Y-107010000D01*
X157200000Y-107010000D02*
X157400000Y-107010000D01*
X157400000Y-107010000D02*
X157400000Y-107410000D01*
X157300000Y-107410000D02*
X157300000Y-107010000D01*
X155540000Y-103890000D02*
X154740000Y-103890000D01*
X154740000Y-103890000D02*
X154740000Y-104690000D01*
X167110000Y-99780000D02*
X166000000Y-99780000D01*
X167110000Y-99020000D02*
X167110000Y-99780000D01*
X167110000Y-98260000D02*
X167110000Y-94515000D01*
X167110000Y-98260000D02*
X166563471Y-98260000D01*
X167110000Y-94515000D02*
X166307530Y-94515000D01*
X165692470Y-94515000D02*
X164890000Y-94515000D01*
X165436529Y-98260000D02*
X164890000Y-98260000D01*
X164890000Y-98260000D02*
X164890000Y-94515000D01*
X159840000Y-99690000D02*
X160950000Y-99690000D01*
X159840000Y-100450000D02*
X159840000Y-99690000D01*
X159840000Y-101210000D02*
X159840000Y-102415000D01*
X159840000Y-101210000D02*
X160386529Y-101210000D01*
X159840000Y-102415000D02*
X160642470Y-102415000D01*
X161257530Y-102415000D02*
X162060000Y-102415000D01*
X161513471Y-101210000D02*
X162060000Y-101210000D01*
X162060000Y-101210000D02*
X162060000Y-102415000D01*
X146090000Y-94040000D02*
X146090000Y-101760000D01*
X146090000Y-101760000D02*
X149810000Y-101760000D01*
X146490000Y-94440000D02*
X146490000Y-101360000D01*
X146490000Y-96300000D02*
X146890000Y-96300000D01*
X146490000Y-96400000D02*
X146890000Y-96400000D01*
X146490000Y-97800000D02*
X146890000Y-97800000D01*
X146490000Y-97900000D02*
X146890000Y-97900000D01*
X146490000Y-99300000D02*
X146890000Y-99300000D01*
X146490000Y-99400000D02*
X146890000Y-99400000D01*
X146490000Y-101360000D02*
X149410000Y-101360000D01*
X146890000Y-96300000D02*
X146890000Y-96500000D01*
X146890000Y-96500000D02*
X146490000Y-96500000D01*
X146890000Y-97800000D02*
X146890000Y-98000000D01*
X146890000Y-98000000D02*
X146490000Y-98000000D01*
X146890000Y-99300000D02*
X146890000Y-99500000D01*
X146890000Y-99500000D02*
X146490000Y-99500000D01*
X147900000Y-94040000D02*
X147900000Y-94440000D01*
X147900000Y-101760000D02*
X147900000Y-101360000D01*
X148900000Y-94040000D02*
X148900000Y-94440000D01*
X148900000Y-101760000D02*
X148900000Y-101360000D01*
X149410000Y-94440000D02*
X146490000Y-94440000D01*
X149410000Y-101360000D02*
X149410000Y-94440000D01*
X149810000Y-94040000D02*
X146090000Y-94040000D01*
X149810000Y-95350000D02*
X150010000Y-95350000D01*
X149810000Y-101760000D02*
X149810000Y-94040000D01*
X149910000Y-95350000D02*
X149910000Y-95050000D01*
X150010000Y-93840000D02*
X149210000Y-93840000D01*
X150010000Y-94640000D02*
X150010000Y-93840000D01*
X150010000Y-95050000D02*
X149810000Y-95050000D01*
X150010000Y-95350000D02*
X150010000Y-95050000D01*
X146940000Y-103890000D02*
X146940000Y-104690000D01*
X147140000Y-104090000D02*
X147140000Y-107810000D01*
X147140000Y-105000000D02*
X147540000Y-105000000D01*
X147140000Y-106000000D02*
X147540000Y-106000000D01*
X147140000Y-107810000D02*
X151860000Y-107810000D01*
X147540000Y-104490000D02*
X147540000Y-107410000D01*
X147540000Y-107410000D02*
X151460000Y-107410000D01*
X147740000Y-103890000D02*
X146940000Y-103890000D01*
X148150000Y-103890000D02*
X148150000Y-104090000D01*
X148450000Y-103890000D02*
X148150000Y-103890000D01*
X148450000Y-103990000D02*
X148150000Y-103990000D01*
X148450000Y-104090000D02*
X148450000Y-103890000D01*
X149400000Y-107010000D02*
X149600000Y-107010000D01*
X149400000Y-107410000D02*
X149400000Y-107010000D01*
X149500000Y-107410000D02*
X149500000Y-107010000D01*
X149600000Y-107010000D02*
X149600000Y-107410000D01*
X151460000Y-104490000D02*
X147540000Y-104490000D01*
X151460000Y-107410000D02*
X151460000Y-104490000D01*
X151860000Y-104090000D02*
X147140000Y-104090000D01*
X151860000Y-105000000D02*
X151460000Y-105000000D01*
X151860000Y-106000000D02*
X151460000Y-106000000D01*
X151860000Y-107810000D02*
X151860000Y-104090000D01*
X154490000Y-102707836D02*
X154490000Y-102492164D01*
X155210000Y-102707836D02*
X155210000Y-102492164D01*
X162240000Y-103890000D02*
X162240000Y-104690000D01*
X162440000Y-104090000D02*
X162440000Y-107810000D01*
X162440000Y-105000000D02*
X162840000Y-105000000D01*
X162440000Y-106000000D02*
X162840000Y-106000000D01*
X162440000Y-107810000D02*
X167160000Y-107810000D01*
X162840000Y-104490000D02*
X162840000Y-107410000D01*
X162840000Y-107410000D02*
X166760000Y-107410000D01*
X163040000Y-103890000D02*
X162240000Y-103890000D01*
X163450000Y-103890000D02*
X163450000Y-104090000D01*
X163750000Y-103890000D02*
X163450000Y-103890000D01*
X163750000Y-103990000D02*
X163450000Y-103990000D01*
X163750000Y-104090000D02*
X163750000Y-103890000D01*
X164700000Y-107010000D02*
X164900000Y-107010000D01*
X164700000Y-107410000D02*
X164700000Y-107010000D01*
X164800000Y-107410000D02*
X164800000Y-107010000D01*
X164900000Y-107010000D02*
X164900000Y-107410000D01*
X166760000Y-104490000D02*
X162840000Y-104490000D01*
X166760000Y-107410000D02*
X166760000Y-104490000D01*
X167160000Y-104090000D02*
X162440000Y-104090000D01*
X167160000Y-105000000D02*
X166760000Y-105000000D01*
X167160000Y-106000000D02*
X166760000Y-106000000D01*
X167160000Y-107810000D02*
X167160000Y-104090000D01*
X153377836Y-104260000D02*
X153162164Y-104260000D01*
X153377836Y-103540000D02*
X153162164Y-103540000D01*
X151592164Y-98290000D02*
X151807836Y-98290000D01*
X151592164Y-99010000D02*
X151807836Y-99010000D01*
X154835000Y-96688748D02*
X154835000Y-97211252D01*
X153365000Y-96688748D02*
X153365000Y-97211252D01*
D13*
X155674400Y-95974400D02*
X155674400Y-96390259D01*
X155674400Y-98809741D02*
X155674400Y-99225600D01*
X155674400Y-99225600D02*
X156090259Y-99225600D01*
X156090259Y-95974400D02*
X155674400Y-95974400D01*
X158509741Y-99225600D02*
X158925600Y-99225600D01*
X158925600Y-95974400D02*
X158509741Y-95974400D01*
X158925600Y-96390259D02*
X158925600Y-95974400D01*
X158925600Y-99225600D02*
X158925600Y-98809741D01*
D14*
G36*
X157740500Y-95542600D02*
G01*
X157359499Y-95542600D01*
X157359499Y-95288600D01*
X157740500Y-95288600D01*
X157740500Y-95542600D01*
G37*
D12*
X154490000Y-100737836D02*
X154490000Y-100522164D01*
X155210000Y-100737836D02*
X155210000Y-100522164D01*
X155660000Y-102810000D02*
X155660000Y-100810000D01*
X157940000Y-102800000D02*
X157940000Y-100800000D01*
X155730000Y-103450000D02*
X155450000Y-103170000D01*
X155730000Y-103170000D01*
X155730000Y-103450000D01*
G36*
X155730000Y-103450000D02*
G01*
X155450000Y-103170000D01*
X155730000Y-103170000D01*
X155730000Y-103450000D01*
G37*
X150527500Y-101350000D02*
X150527500Y-100550000D01*
X150527500Y-101350000D02*
X150527500Y-102150000D01*
X153647500Y-101350000D02*
X153647500Y-100550000D01*
X153647500Y-101350000D02*
X153647500Y-102150000D01*
X150577500Y-102650000D02*
X150247500Y-102890000D01*
X150247500Y-102410000D01*
X150577500Y-102650000D01*
G36*
X150577500Y-102650000D02*
G01*
X150247500Y-102890000D01*
X150247500Y-102410000D01*
X150577500Y-102650000D01*
G37*
X160942164Y-103140000D02*
X161157836Y-103140000D01*
X160942164Y-103860000D02*
X161157836Y-103860000D01*
X158470000Y-100903641D02*
X158470000Y-100596359D01*
X159230000Y-100903641D02*
X159230000Y-100596359D01*
X160346359Y-98370000D02*
X160653641Y-98370000D01*
X160346359Y-99130000D02*
X160653641Y-99130000D01*
%LPC*%
D15*
X156550000Y-105500000D03*
D16*
X158050000Y-105500000D03*
D17*
X166000000Y-99020000D03*
D18*
X166000000Y-97750000D03*
X166000000Y-96480000D03*
X166000000Y-95210000D03*
D17*
X160950000Y-100450000D03*
D18*
X160950000Y-101720000D03*
D19*
X148400000Y-95650000D03*
D20*
X148400000Y-97150000D03*
X148400000Y-98650000D03*
X148400000Y-100150000D03*
D15*
X148750000Y-105500000D03*
D16*
X150250000Y-105500000D03*
D21*
X154850000Y-103080000D03*
X154850000Y-102120000D03*
D15*
X164050000Y-105500000D03*
D16*
X165550000Y-105500000D03*
D22*
X153750000Y-103900000D03*
X152790000Y-103900000D03*
D23*
X151220000Y-98650000D03*
X152180000Y-98650000D03*
D24*
X154100000Y-96000000D03*
X154100000Y-97900000D03*
D25*
X156549999Y-99022400D03*
X157050000Y-99022400D03*
X157550000Y-99022400D03*
X158050001Y-99022400D03*
D26*
X158722400Y-98350001D03*
X158722400Y-97850000D03*
X158722400Y-97350000D03*
X158722400Y-96849999D03*
D25*
X158050001Y-96177600D03*
X157550000Y-96177600D03*
X157050000Y-96177600D03*
X156549999Y-96177600D03*
D26*
X155877600Y-96849999D03*
X155877600Y-97350000D03*
X155877600Y-97850000D03*
X155877600Y-98350001D03*
D27*
X157300000Y-97600000D03*
D21*
X154850000Y-101110000D03*
X154850000Y-100150000D03*
D28*
X156050000Y-102750000D03*
X156550000Y-102750000D03*
X157050000Y-102750000D03*
X157550000Y-102750000D03*
X157550000Y-100850000D03*
X157050000Y-100850000D03*
X156550000Y-100850000D03*
X156050000Y-100850000D03*
D29*
X156800000Y-101800000D03*
D30*
X151137500Y-102487500D03*
X152087500Y-102487500D03*
X153037500Y-102487500D03*
X153037500Y-100212500D03*
X151137500Y-100212500D03*
D23*
X160570000Y-103500000D03*
X161530000Y-103500000D03*
D31*
X158850000Y-101260000D03*
X158850000Y-100240000D03*
D32*
X159990000Y-98750000D03*
X161010000Y-98750000D03*
%LPD*%
M02*
