G04 #@! TF.GenerationSoftware,KiCad,Pcbnew,9.0.0*
G04 #@! TF.CreationDate,2025-03-03T20:11:52-05:00*
G04 #@! TF.ProjectId,pcb,7063622e-6b69-4636-9164-5f7063625858,rev?*
G04 #@! TF.SameCoordinates,Original*
G04 #@! TF.FileFunction,Paste,Top*
G04 #@! TF.FilePolarity,Positive*
%FSLAX46Y46*%
G04 Gerber Fmt 4.6, Leading zero omitted, Abs format (unit mm)*
G04 Created by KiCad (PCBNEW 9.0.0) date 2025-03-03 20:11:52*
%MOMM*%
%LPD*%
G01*
G04 APERTURE LIST*
G04 Aperture macros list*
%AMRoundRect*
0 Rectangle with rounded corners*
0 $1 Rounding radius*
0 $2 $3 $4 $5 $6 $7 $8 $9 X,Y pos of 4 corners*
0 Add a 4 corners polygon primitive as box body*
4,1,4,$2,$3,$4,$5,$6,$7,$8,$9,$2,$3,0*
0 Add four circle primitives for the rounded corners*
1,1,$1+$1,$2,$3*
1,1,$1+$1,$4,$5*
1,1,$1+$1,$6,$7*
1,1,$1+$1,$8,$9*
0 Add four rect primitives between the rounded corners*
20,1,$1+$1,$2,$3,$4,$5,0*
20,1,$1+$1,$4,$5,$6,$7,0*
20,1,$1+$1,$6,$7,$8,$9,0*
20,1,$1+$1,$8,$9,$2,$3,0*%
G04 Aperture macros list end*
%ADD10RoundRect,0.140000X0.170000X-0.140000X0.170000X0.140000X-0.170000X0.140000X-0.170000X-0.140000X0*%
%ADD11RoundRect,0.140000X0.140000X0.170000X-0.140000X0.170000X-0.140000X-0.170000X0.140000X-0.170000X0*%
%ADD12RoundRect,0.140000X-0.140000X-0.170000X0.140000X-0.170000X0.140000X0.170000X-0.140000X0.170000X0*%
%ADD13RoundRect,0.250000X-0.475000X0.250000X-0.475000X-0.250000X0.475000X-0.250000X0.475000X0.250000X0*%
%ADD14R,0.254000X0.762000*%
%ADD15R,0.762000X0.254000*%
%ADD16R,1.498600X1.498600*%
%ADD17R,0.650000X0.750000*%
%ADD18RoundRect,0.062500X0.062500X-0.187500X0.062500X0.187500X-0.062500X0.187500X-0.062500X-0.187500X0*%
%ADD19RoundRect,0.150000X0.150000X-0.512500X0.150000X0.512500X-0.150000X0.512500X-0.150000X-0.512500X0*%
%ADD20RoundRect,0.135000X0.185000X-0.135000X0.185000X0.135000X-0.185000X0.135000X-0.185000X-0.135000X0*%
%ADD21RoundRect,0.135000X-0.135000X-0.185000X0.135000X-0.185000X0.135000X0.185000X-0.135000X0.185000X0*%
G04 APERTURE END LIST*
D10*
X154850000Y-103080000D03*
X154850000Y-102120000D03*
D11*
X153750000Y-103900000D03*
X152790000Y-103900000D03*
D12*
X151220000Y-98650000D03*
X152180000Y-98650000D03*
D13*
X154100000Y-96000000D03*
X154100000Y-97900000D03*
D14*
X156549999Y-99022400D03*
X157050000Y-99022400D03*
X157550000Y-99022400D03*
X158050001Y-99022400D03*
D15*
X158722400Y-98350001D03*
X158722400Y-97850000D03*
X158722400Y-97350000D03*
X158722400Y-96849999D03*
D14*
X158050001Y-96177600D03*
X157550000Y-96177600D03*
X157050000Y-96177600D03*
X156549999Y-96177600D03*
D15*
X155877600Y-96849999D03*
X155877600Y-97350000D03*
X155877600Y-97850000D03*
X155877600Y-98350001D03*
D16*
X157300000Y-97600000D03*
D10*
X154850000Y-101110000D03*
X154850000Y-100150000D03*
D17*
X156400000Y-101800000D03*
X157200000Y-101800000D03*
D18*
X156050000Y-102750000D03*
X156550000Y-102750000D03*
X157050000Y-102750000D03*
X157550000Y-102750000D03*
X157550000Y-100850000D03*
X157050000Y-100850000D03*
X156550000Y-100850000D03*
X156050000Y-100850000D03*
D19*
X151137500Y-102487500D03*
X152087500Y-102487500D03*
X153037500Y-102487500D03*
X153037500Y-100212500D03*
X151137500Y-100212500D03*
D12*
X160570000Y-103500000D03*
X161530000Y-103500000D03*
D20*
X158850000Y-101260000D03*
X158850000Y-100240000D03*
D21*
X159990000Y-98750000D03*
X161010000Y-98750000D03*
M02*
